<?xml version="1.0" standalone="no"?>
<!DOCTYPE svg PUBLIC "-//W3C//DTD SVG 1.1//EN" "http://www.w3.org/Graphics/SVG/1.1/DTD/svg11.dtd" >
<svg xmlns="http://www.w3.org/2000/svg">
<metadata>
This is a custom SVG webfont generated by Font Squirrel.
Copyright   : c 1999 Ray Larabie This font is freeware Read attached text file for details Info  updates visit wwwlarabiefontscom Donations gratefully accepted at wwwlarabiefontscomdonationhtml Also visit my commercial type foundry at wwwtypodermiccom This font was updated in 2007
Designer    : Ray Larabie
Foundry     : Ray Larabie
Foundry URL : httpwwwlarabiefontscom
</metadata>
<defs>
<font id="MailRayStuffRegular" horiz-adv-x="1333" >
<font-face units-per-em="2048" ascent="1516" descent="-532" />
<missing-glyph horiz-adv-x="563" />
<glyph unicode=" "  horiz-adv-x="563" />
<glyph unicode="&#x09;" horiz-adv-x="563" />
<glyph unicode="&#xa0;" horiz-adv-x="563" />
<glyph unicode="!" horiz-adv-x="493" d="M55 1122q0 92 3 166t8 113h323q-4 -41 -7 -111.5t-6 -159t-5 -184.5t-2 -186q0 -92 2 -165t6 -120h-303q-4 43 -7.5 117t-6.5 162t-4 184t-1 184zM66 162q0 68 52 115t130 47q37 0 69.5 -12.5t58 -34t41 -51t15.5 -64.5t-15.5 -64.5t-41 -51t-58 -34t-69.5 -12.5 t-70 12.5t-57.5 34t-39.5 51t-15 64.5z" />
<glyph unicode="&#x22;" horiz-adv-x="860" d="M-4 1307l291 149q25 -37 46 -132l48 -224l-315 -70q-14 74 -24.5 121t-19 78t-14.5 48.5t-12 29.5zM451 1315l290 145q70 -139 80 -332l-323 -18q-6 127 -47 205z" />
<glyph unicode="#" horiz-adv-x="759" d="M53 885v266q14 6 36 16.5t52 20.5q-6 27 -10 52.5t-12 47.5l108 129q12 -45 21.5 -91t17.5 -93q43 16 82 25.5t74 19.5q-2 35 -5 66.5t-11 60.5l139 16q4 -18 4 -36v-35v-50l44 3.5t36 1.5v-265q-31 0 -68 -6l8 -155q41 10 69 22t46 25l43 -250q-20 -14 -141 -39l8 -205 l-125 -24l-10 204l-142 -24l9 -129l-125 -35l-6 147l-111 -12v254l96 14l-8 101q-99 -43 -119 -43zM297 975l6 -139q41 4 76 9t65 11l-10 158z" />
<glyph unicode="$" horiz-adv-x="1239" d="M45 858q0 66 33 129.5t93 117.5t144 96t187 67q-8 86 -31 133l293 141q43 -92 61 -252q51 -2 105.5 -7t102.5 -12t86 -17.5t57 -22.5l-162 -287q-39 27 -176 27q-53 0 -109.5 -4t-109 -12.5t-98.5 -20.5t-77 -29q389 0 579.5 -74.5t190.5 -265.5q0 -246 -337 -321l4 -90 l-324 -19l-6 101q-29 4 -86 8t-121 9l-122 10q-58 5 -85 9l51 320q141 -23 253 -34t198 -11q162 0 240 37q-57 12 -149.5 17t-215.5 5q-129 0 -218 14.5t-144.5 45t-81 77.5t-25.5 115z" />
<glyph unicode="%" horiz-adv-x="1114" d="M43 1112q0 37 12.5 72t34 61.5t51 42t66.5 15.5t67.5 -15.5t53 -42t35 -61.5t12.5 -72q0 -41 -14.5 -74.5t-37 -59.5t-53 -40t-63.5 -14q-35 0 -64.5 15t-51 41t-35 59.5t-13.5 72.5zM86 326l348 449q174 234 334 511l266 -184q-74 -125 -161 -258l-177 -262 q-90 -129 -181 -246t-173 -209zM676 162q0 68 54 115t130 47q78 0 131 -47.5t53 -114.5q0 -35 -15 -64.5t-40.5 -51t-58.5 -34t-70 -12.5t-69.5 12.5t-58 34t-41 51t-15.5 64.5z" />
<glyph unicode="&#x26;" horiz-adv-x="1337" d="M84 356q0 229 178 365q-84 141 -84 315q0 86 32 160t87 129t130 86t161 31q94 0 172 -29t134 -83t87 -130t31 -170q0 -242 -217 -379l151 -102l55 110l297 -135l-42 -83q-19 -40 -39 -74q33 -25 58 -48l48 -43l-238 -223l-67 64q-193 -170 -461 -170q-92 0 -177 32.5 t-150.5 89t-105.5 130t-40 157.5zM408 356q0 -16 15 -31.5t38.5 -27.5t49.5 -19.5t46 -7.5q98 0 178 43l-150 95q-62 41 -104 73q-73 -55 -73 -125zM502 1036q0 -72 49 -151q135 70 135 145q0 55 -22.5 71.5t-75.5 16.5q-86 0 -86 -82z" />
<glyph unicode="'" horiz-adv-x="501" d="M2 1321l285 152q68 -104 95.5 -225.5t27.5 -258.5l-318 27q0 74 -21.5 143.5t-68.5 161.5z" />
<glyph unicode="(" horiz-adv-x="610" d="M41 715q0 131 28.5 259t80 239.5t122 196.5t156.5 130l145 -287q-43 -25 -80.5 -83t-66.5 -132.5t-45 -159.5t-16 -163q0 -96 18 -189.5t50 -170t77 -131t100 -72.5l-106 -308q-104 35 -190.5 117t-147 196.5t-93 257t-32.5 300.5z" />
<glyph unicode=")" horiz-adv-x="700" d="M45 94q78 76 132 148.5t87 148.5t47.5 158t14.5 180q0 350 -203 541l223 235q305 -289 305 -776q0 -131 -21.5 -244.5t-66.5 -218t-116.5 -203t-172.5 -198.5z" />
<glyph unicode="*" horiz-adv-x="813" d="M16 1034q35 18 67 42t56 52q-20 20 -50 35t-64 27l133 223q20 -8 39.5 -18.5l43.5 -24.5l53 -34l71 -46q39 61 83 116.5t91 106.5l182 -182q-35 -39 -66 -80l-59 -82q47 -4 94 -12l96 -16l-55 -256q-84 20 -172 33q14 -76 49 -138l-223 -133q-35 66 -54.5 134.5 t-35.5 138.5q-35 -41 -81 -70t-83 -47z" />
<glyph unicode="+" horiz-adv-x="794" d="M47 590v325l172 -10v162h322v-180l180 -8v-324l-189 8l-6 -198l-307 47v170z" />
<glyph unicode="," horiz-adv-x="452" d="M47 227q0 37 16.5 69t43 55.5t61.5 36.5t72 13q86 0 133 -59t47 -152q0 -113 -72 -212t-203 -150q70 78 89.5 124t19.5 66q0 4 -1 11.5t-3 17.5q-23 -6 -41 -6q-72 0 -117 56t-45 130z" />
<glyph unicode="-" horiz-adv-x="837" d="M86 526v326q129 0 293 -7t369 -20l-23 -323q-397 24 -639 24z" />
<glyph unicode="." horiz-adv-x="540" d="M74 135q0 39 15 74t43 60.5t63.5 40t76.5 14.5q39 0 76 -14.5t64.5 -40t44 -60.5t16.5 -74q0 -82 -59.5 -136t-141.5 -54t-140 54t-58 136z" />
<glyph unicode="/" horiz-adv-x="944" d="M25 172q113 141 207 305t171.5 335t140 342t113.5 329l287 -154q-47 -156 -112.5 -330t-149.5 -352t-185.5 -352t-220.5 -328z" />
<glyph unicode="0" horiz-adv-x="1208" d="M43 838q0 147 35 264t102.5 198.5t165.5 124.5t225 43q113 0 201 -45t154.5 -119.5t112.5 -172t76 -203t43 -212t13 -198.5q0 -147 -33.5 -265t-98 -199t-160 -124t-215.5 -43q-139 0 -253 76t-196 206t-127 302t-45 367zM362 852q0 -117 24 -231.5t65 -203.5t99 -144.5 t126 -55.5q174 0 174 293q0 119 -21.5 232.5t-60.5 202.5t-92 143.5t-117 54.5q-197 0 -197 -291z" />
<glyph unicode="1" horiz-adv-x="624" d="M109 1143l14 323q438 -25 438 -708q0 -47 -5 -118l-11 -149q-6 -79 -15.5 -162t-15.5 -155l-11 -127q-5 -55 -5 -78l-324 15q0 20 4 72.5t11 121.5l16 151l15 158.5t11.5 146t4.5 116.5q0 383 -127 393z" />
<glyph unicode="2" horiz-adv-x="966" d="M-61 -74q49 272 219 506q39 53 111 132l180 186q143 143 143 219q0 29 -10.5 57.5t-27.5 51t-42 36.5t-53 14q-61 0 -99 -65l-278 162q66 117 164 172t260 55q92 0 169 -36t130 -96t82.5 -136t29.5 -156q0 -70 -4 -118t-14 -85t-26.5 -65.5t-38.5 -59.5q-16 -20 -51 -58 l-76 -84l-91 -95l-90 -95l-76 -84q-34 -38 -49 -59q49 4 100.5 7.5t104.5 3.5q98 0 182 -8.5t140 -22.5l-64 -314q-92 25 -198.5 36.5t-235.5 11.5h-102q-68 0 -143 -2l-143 -5q-68 -2 -103 -6z" />
<glyph unicode="3" horiz-adv-x="1038" d="M33 274l313 82q18 -66 129 -65q80 0 132 37t52 96q0 203 -170 203q-27 0 -53 -5.5t-59 -13.5q0 82 -4 163t-11 159q72 -23 132 -23q72 0 123 28t51 81q0 68 -43 107.5t-113 39.5q-137 0 -180 -102l-281 143q63 131 184 207t269 76q104 0 191 -28.5t151.5 -83 t100.5 -132.5t36 -176q0 -111 -41 -182.5t-104 -112.5q31 -18 58.5 -53t47 -79t30.5 -94t11 -100q0 -106 -39 -194t-108.5 -150.5t-162.5 -97.5t-200 -35q-82 0 -154.5 21.5t-130 61.5t-98.5 96t-59 126z" />
<glyph unicode="4" horiz-adv-x="1103" d="M-106 565q111 217 193.5 423t139.5 409l312 -90q-35 -129 -69 -232.5t-67 -189.5h230q-6 236 -10.5 371t-4.5 171h326q0 -78 12 -546h117v-324h-110q0 -193 -9.5 -338t-25.5 -250l-320 56q31 193 31 536q-174 2 -357 3t-388 1z" />
<glyph unicode="5" horiz-adv-x="1114" d="M68 590q10 172 15 316.5t5 269.5q0 141 -6 251q59 4 123.5 5.5t130.5 1.5q129 0 251 -5.5t220 -11.5l-33 -315q-39 4 -106.5 7t-141.5 3h-71q-43 0 -70 -2v-86q29 4 74 6t73 2q262 0 406.5 -114.5t144.5 -335.5q0 -113 -32.5 -197t-89 -146.5t-131 -109.5t-158.5 -87 l-171 -78q-87 -38 -169 -83l-164 281q193 68 309.5 127t179 111.5t83 97.5t20.5 84q0 139 -180 139q-170 0 -512 -131z" />
<glyph unicode="6" horiz-adv-x="1107" d="M37 541q0 512 407 968l240 -215q-324 -367 -324 -753q0 -293 232 -293q78 0 114.5 32.5t36.5 106.5q0 66 -44 103.5t-148 37.5l74 316q94 0 175 -33t139 -91t91 -137t33 -171q0 -115 -35 -206t-97.5 -153.5t-149.5 -95.5t-189 -33q-127 0 -229.5 45t-175 126t-111.5 195 t-39 251z" />
<glyph unicode="7" horiz-adv-x="997" d="M4 39q23 106 72 248.5t113.5 292t137 291t142.5 243.5q-98 -6 -209 -8t-215 -2v317h1002l-221 -337q-110 -171 -206 -350t-173.5 -368.5t-124.5 -392.5z" />
<glyph unicode="8" horiz-adv-x="1073" d="M49 1081q0 84 25.5 157t75 125t123 82t171.5 30q66 0 136.5 -12.5t144.5 -41.5l-25 -164l48 78l282 -143q-12 -23 -28.5 -48.5t-47 -64.5t-82.5 -98l-133 -150q68 -37 115 -88t77 -111.5t44 -126t14 -128.5q0 -199 -125 -308.5t-340 -109.5q-88 0 -165.5 28.5t-135 80 t-91.5 121t-34 149.5q0 43 9.5 93t29 102.5t51 103.5t74.5 94q-104 59 -158.5 143t-54.5 207zM375 1098q0 -33 22.5 -71t71.5 -62q37 35 75 81t70 103q-53 37 -114 37q-43 0 -84 -23.5t-41 -64.5zM438 377q0 -55 35 -76.5t88 -21.5q35 0 72 24.5t37 81.5q0 49 -41 108.5 t-103 94.5q-45 -68 -66.5 -122t-21.5 -89z" />
<glyph unicode="9" horiz-adv-x="1081" d="M31 1057q0 98 32.5 182t91 145.5t140.5 96.5t182 35q125 0 228.5 -42t177 -119t114.5 -182.5t41 -234.5q0 -135 -36.5 -270.5t-106.5 -265.5t-171 -252.5t-230 -231.5l-213 246q434 369 434 782q0 244 -240 244q-53 0 -87 -37t-34 -86q0 -68 49.5 -114t116.5 -48 l-114 -303q-84 12 -154 52t-119 100.5t-75.5 138.5t-26.5 164z" />
<glyph unicode=":" horiz-adv-x="495" d="M55 262q0 39 16.5 73t44 59.5t63.5 40t77 14.5q39 0 76 -14.5t63.5 -40t43 -59.5t16.5 -73q0 -41 -16.5 -74.5t-43 -60.5t-63.5 -41t-76 -14q-41 0 -77 14t-63.5 41t-44 60.5t-16.5 74.5zM61 920q0 37 14.5 71.5t39 60t58.5 41t73 15.5t73.5 -15.5t59 -41t39 -60.5 t14.5 -71q0 -80 -53 -136.5t-133 -56.5q-39 0 -73 15.5t-58.5 41t-39 60.5t-14.5 76z" />
<glyph unicode=";" horiz-adv-x="503" d="M51 227q0 37 16.5 69t43 55.5t61.5 36.5t72 13q86 0 133 -59t47 -152q0 -55 -19.5 -109t-55.5 -101.5t-86 -86t-111 -65.5l67 90q23 29 28 54.5t11 45.5q0 4 -1 11.5t-3 17.5q-18 -6 -41 -6q-74 0 -118 56t-44 130zM68 819q0 39 15 73t41 59.5t60.5 41t71.5 15.5 q39 0 75 -15.5t61.5 -41t41 -59.5t15.5 -73q0 -80 -56.5 -134t-136.5 -54q-37 0 -71.5 14t-60.5 40t-41 59.5t-15 74.5z" />
<glyph unicode="&#x3c;" horiz-adv-x="1050" d="M-25 664l783 585l194 -258l-366 -307l465 -328l-191 -264z" />
<glyph unicode="=" horiz-adv-x="1091" d="M104 809v324l914 -29v-324zM109 317v308l897 22l18 -330h-915z" />
<glyph unicode="&#x3e;" horiz-adv-x="1085" d="M23 1057l186 264l887 -576l-781 -585l-196 260l368 307z" />
<glyph unicode="?" horiz-adv-x="1044" d="M78 1065q10 205 145 311.5t369 106.5q106 0 187 -27t136.5 -75t84 -112.5t28.5 -140.5q0 -86 -25.5 -143t-64.5 -100t-83 -78t-83 -76t-64.5 -95t-25.5 -134v-19q0 -6 2 -10t4 -10t6 -21h-311q0 98 6 171t24.5 127.5t53.5 96.5t94 81q66 43 101.5 79.5t35.5 87.5 q0 47 -34.5 65.5t-116.5 18.5q-66 0 -107 -32.5t-47 -85.5zM340 164q0 39 17.5 72.5t46 58t65.5 38t78 13.5t79 -13.5t67.5 -38t47 -58t17.5 -72.5q0 -41 -17.5 -75t-47 -58.5t-67.5 -37.5t-79 -13t-78 13t-65.5 37.5t-46 58.5t-17.5 75z" />
<glyph unicode="@" horiz-adv-x="1488" d="M51 563q0 205 51.5 359.5t144.5 258t224 156t293 52.5q137 0 260 -37t216 -111t147.5 -184.5t54.5 -259.5q0 -115 -26.5 -207t-74 -157.5t-111 -101.5t-138.5 -36q-98 0 -166 33.5t-97 85.5q-20 -29 -56 -43.5t-97 -14.5q-39 0 -77 17.5t-67.5 51.5t-48 86t-18.5 122 q0 154 67.5 232.5t172.5 78.5q53 0 89.5 -16.5t49.5 -34.5l14 45l139 -8q-4 -23 -8 -70t-8 -99t-7 -101.5t-3 -75.5q0 -53 22.5 -88t69.5 -35q51 0 85 25.5t54.5 69.5t29.5 105.5t9 135.5q0 84 -38 156.5t-103.5 126t-152.5 84t-183 30.5q-115 0 -209 -36t-160.5 -112.5 t-103.5 -195.5t-37 -287q0 -100 43 -179t107.5 -134t139 -88t138.5 -41l-31 -187q-102 6 -208.5 51.5t-193.5 126.5t-142.5 194.5t-55.5 256.5zM659 653q0 -45 9.5 -78.5t58.5 -33.5q12 0 27.5 2t25.5 6q0 76 5.5 130t9.5 75q-31 10 -52 10q-25 0 -41 -11.5t-25 -28.5 t-13.5 -37t-4.5 -34z" />
<glyph unicode="A" d="M39 682q0 166 44 309.5t126 249t196.5 164.5t253.5 59q137 0 255 -61.5t203 -168t133 -248.5t48 -304q0 -41 -2 -94t-13 -135t-35.5 -200t-69.5 -290l-318 76q18 68 42 169t52 243q-59 -10 -125.5 -31t-135 -49.5t-135 -65.5t-126.5 -80q4 -47 16.5 -88t26.5 -82 l-317 -73q-53 154 -86 334t-33 366zM362 682q0 -68 7 -125q61 43 140 81t160 66.5t158.5 49t139.5 28.5q-10 76 -38 142.5t-68 113.5t-92 75t-110 28q-70 0 -125 -36t-93 -97.5t-58.5 -145.5t-20.5 -180z" />
<glyph unicode="B" horiz-adv-x="1191" d="M41 -88l17 191q9 99 16.5 199.5t11.5 199t4 188.5q0 104 -11 287.5t-34 460.5q80 10 185.5 15t240.5 5q291 0 428 -93t137 -269q0 -98 -44 -174t-138 -103q70 -12 130 -40.5t103 -69.5t68 -96.5t25 -118.5q0 -135 -80 -244t-228.5 -183.5t-359.5 -114.5t-471 -40z M387 1130q12 -92 18.5 -164.5t8.5 -125.5q49 6 96 24.5t84 44t59.5 57t22.5 66.5q0 109 -187 109q-27 0 -51 -3.5zM406 254q78 6 155.5 29.5t139 57.5t100.5 74t39 79q0 109 -269 108q-41 0 -77.5 -2t-71.5 -8q0 -72 -4 -156t-12 -182z" />
<glyph unicode="C" horiz-adv-x="774" d="M20 692q0 172 41 316.5t116 249t182.5 163t240.5 58.5q23 0 43 -2l43 -4l-37 -326q-23 6 -47 6q-59 0 -106 -33t-81 -93t-52.5 -145t-18.5 -190q0 -436 395 -436l35 -324q-12 -2 -25 -2h-28q-176 0 -307 55.5t-218 157t-131.5 240.5t-44.5 309z" />
<glyph unicode="D" horiz-adv-x="1091" d="M33 330q0 561 123 1157q207 0 373.5 -41t285.5 -119t182.5 -191.5t63.5 -258.5q0 -188 -86 -351.5t-226.5 -289t-318.5 -209.5t-364 -117q-33 164 -33 420zM360 338q57 33 114.5 97.5t105 141t77 157.5t29.5 145q0 215 -264 270q-62 -295 -62 -811z" />
<glyph unicode="E" horiz-adv-x="792" d="M23 692q0 172 40.5 316.5t115.5 249t182.5 163t240.5 58.5q23 0 44 -2l44 -4l-43 -328q-18 8 -61 8q-176 0 -226 -297q70 2 135.5 5t129.5 13l34 -325q-70 -8 -142.5 -11l-151.5 -6q63 -276 376 -276l35 -324q-178 0 -318.5 52.5t-237.5 150.5t-147 239.5t-50 317.5z" />
<glyph unicode="F" horiz-adv-x="747" d="M10 682q0 823 461 823q98 0 170 -17.5t119 -43.5l-113 -303q-18 10 -50 18t-79 8q-166 0 -192 -303h333v-323h-329q2 -135 13 -262t34 -252l-326 -21q-8 88 -15 181.5l-13.5 182.5t-9.5 170t-3 142z" />
<glyph unicode="G" horiz-adv-x="1185" d="M23 672q0 186 38.5 339.5t112.5 262t181.5 169t246.5 60.5q88 0 174 -27.5t154.5 -75.5t115 -113.5t56.5 -139.5l-322 -94q-43 119 -157 118q-66 0 -117 -38.5t-86 -106.5t-54.5 -159t-19.5 -195q0 -90 27.5 -166t78 -131.5t119 -86t148.5 -30.5q29 0 55.5 14.5t46 39 t31.5 56t12 66.5q0 51 -23.5 77t-82.5 26q-31 0 -54.5 -11.5t-64.5 -33.5l-55 280q43 31 102 46.5t109 15.5q84 0 153.5 -31t118.5 -85t76.5 -129t27.5 -163q0 -100 -32.5 -189.5t-93 -157t-143.5 -106.5t-183 -39q-147 0 -275.5 56.5t-221.5 156t-146 233.5t-53 292z" />
<glyph unicode="H" horiz-adv-x="1050" d="M27 1403l319 47q6 -29 13.5 -76t15.5 -106.5t14 -128t10 -138.5q43 66 109.5 94.5t138.5 28.5q90 0 158.5 -43t116 -113.5t71 -164.5t23.5 -195q0 -98 -10.5 -209.5t-23.5 -210t-24.5 -171t-13.5 -91.5l-321 27l23 223q9 88 13.5 145.5t6.5 91t2 60.5q0 324 -123 324 q-33 0 -59.5 -33t-45 -123t-29 -250t-10.5 -411h-325q0 539 -6 891t-43 532z" />
<glyph unicode="I" horiz-adv-x="499" d="M86 14v173q0 110 1 244l2 279l2 277q1 133 1 243v173h324v-172q0 -111 -1 -244l-2 -277l-2 -279q-1 -134 -1 -244v-173h-324z" />
<glyph unicode="J" horiz-adv-x="909" d="M27 428h325q0 -72 18.5 -107.5t65.5 -35.5q59 0 85 45t26 168q0 481 -176 786l282 160q219 -379 219 -946q0 -258 -112.5 -398.5t-323.5 -140.5q-94 0 -170 35t-129 97.5t-81.5 148.5t-28.5 188z" />
<glyph unicode="K" horiz-adv-x="972" d="M45 1391l324 16q4 -55 6 -111.5t2 -115.5q41 86 97 162.5t134 138.5l205 -250q-31 -27 -71 -74t-83 -104.5t-85 -120t-74.5 -119.5t-53 -104t-20.5 -74q0 -18 30.5 -49t79 -68t109.5 -76l122 -73q60 -35 114.5 -61.5t91.5 -39.5l-90 -311q-125 37 -245 97.5t-218 158.5 q6 -37 7 -87t1 -81h-324q0 55 -2 155.5t-6 226.5t-9 265t-12 270.5t-14.5 244t-15.5 184.5z" />
<glyph unicode="L" horiz-adv-x="657" d="M33 514q0 59 7 147.5t19.5 186.5l26.5 198.5t28.5 188.5t28 152.5t21.5 91.5l325 -33q-8 -33 -21 -98.5t-27.5 -150.5t-29 -180t-26.5 -187.5t-19.5 -175.5t-7.5 -140q0 -166 69 -235.5t230 -69.5v-324q-299 0 -461.5 164t-162.5 465z" />
<glyph unicode="M" horiz-adv-x="1638" d="M25 842q0 147 31.5 265t91 202t145.5 129t196 45q98 0 189.5 -61.5t136.5 -172.5q20 55 56 98.5t80 74t93.5 46t98.5 15.5q106 0 192 -45t145.5 -129t91.5 -202t32 -265q0 -285 -45.5 -499t-118.5 -394l-320 59q78 184 119 389t41 445q0 315 -137 315q-96 0 -146.5 -166 t-50.5 -463q0 -293 41 -432h-342q18 61 26.5 167t8.5 259q0 307 -51 471t-140 164q-141 0 -141 -315q0 -240 41 -444.5t121 -389.5l-322 -59q-51 129 -82.5 226t-50 192.5t-24.5 206t-6 268.5z" />
<glyph unicode="N" horiz-adv-x="1097" d="M31 821q0 180 12 326.5t35 269.5l307 53q-12 -35 -17.5 -76.5t-5.5 -72.5q45 76 116 111.5t157 35.5q205 0 314.5 -139t109.5 -420q0 -449 -221 -991l-301 123q39 92 75.5 215t65.5 248t46 238.5t17 185.5q0 215 -116 215q-133 0 -205 -150.5t-72 -408.5 q0 -104 19.5 -239.5t54.5 -270.5l-316 -111q-75 366 -75 858z" />
<glyph unicode="O" horiz-adv-x="1255" d="M27 590q0 168 48 327.5t134 284.5t202.5 201t252.5 76q129 0 233 -47.5t176 -132.5t111 -204.5t39 -267.5q0 -178 -48.5 -346t-134.5 -298t-202.5 -209.5t-251.5 -79.5q-129 0 -232.5 51t-176.5 143t-111.5 220t-38.5 282zM348 580q0 -70 15.5 -134.5t45 -113.5t70.5 -79 t92 -30q68 0 127.5 54.5t103.5 140.5t69.5 190.5t25.5 206.5q0 154 -56.5 245t-160.5 91q-68 0 -128 -53.5t-105.5 -137t-72 -185t-26.5 -195.5z" />
<glyph unicode="P" horiz-adv-x="1046" d="M10 1481q303 0 499 -31t309.5 -97.5t158.5 -172t45 -254.5q0 -205 -150.5 -350.5t-457.5 -210.5q4 -92 6 -180.5t2 -170.5h-326q0 190 -4 387t-14 386.5t-26.5 365.5t-41.5 328zM362 1155q16 -125 24.5 -243.5t12.5 -219.5q299 72 299 283q0 39 -25.5 72.5t-70.5 57 t-106.5 37t-133.5 13.5z" />
<glyph unicode="Q" horiz-adv-x="1359" d="M23 477q0 102 26.5 214t76.5 219.5t121.5 205.5t163 172t199 118t228.5 44q117 0 209 -43t154.5 -116.5t96 -171t33.5 -208.5q0 -86 -16.5 -178t-52 -183t-92 -178t-138.5 -165q8 -68 20.5 -110t29 -71.5t34.5 -49.5l39 -39l-221 -238q-47 45 -94 127t-66 174 q-59 -39 -131 -58.5t-145 -19.5q-109 0 -197 41t-149.5 115t-95 175t-33.5 224zM346 502q0 -104 48 -176t134 -72q66 0 103 13.5t65 41.5q-31 68 -76 107t-92 49l109 283q86 -27 153.5 -86.5t98.5 -141.5q59 106 85.5 210t26.5 198q0 98 -51 146t-137 48q-80 0 -163 -60.5 t-150.5 -152.5t-110.5 -200.5t-43 -206.5z" />
<glyph unicode="R" horiz-adv-x="1069" d="M70 -29q18 377 18 779q0 180 -3 361t-13 362q37 4 85 7t107 3q170 0 307.5 -34t234.5 -99.5t149.5 -161.5t52.5 -221q0 -160 -86 -277t-246 -176q27 -35 72 -79t100 -93l117 -99l122 -98l-200 -254q-37 45 -101 109l-134 128l-139 122q-69 57 -114 90q-2 -111 -5 -201 t-9 -168h-315zM399 1143q8 -86 9.5 -194.5t1.5 -231.5q129 31 200.5 82t71.5 161q0 86 -70 128.5t-213 54.5z" />
<glyph unicode="S" horiz-adv-x="899" d="M37 1061q0 92 27.5 169t81 132t130 87t175.5 32q74 0 148.5 -21.5t115.5 -68.5l-199 -258q-29 35 -72 34q-84 0 -84 -106q0 -66 28 -116t73 -93t101 -85t114 -91q102 -94 139 -176t37 -166q0 -96 -35 -181t-96.5 -149.5t-144 -101.5t-177.5 -37q-152 0 -284 102l202 254 q39 -33 82 -33q55 0 91 33t36 96q0 18 -9 39t-30.5 45.5t-57.5 56l-89 74.5q-61 49 -116.5 102.5t-97.5 117t-65.5 139.5t-23.5 170z" />
<glyph unicode="T" horiz-adv-x="731" d="M25 1126v324h83q54 0 119.5 -1t137 -1t138 -1t121.5 -1h85v-324h-197q4 -154 7 -337t3 -406v-373h-323q0 819 -13 1120h-161z" />
<glyph unicode="U" horiz-adv-x="1335" d="M43 754q0 184 34 365t87 356l315 -74q-45 -143 -78.5 -308t-33.5 -339q0 -92 22.5 -174t64.5 -144.5t99 -99.5t129 -37q68 0 122 35t92 96.5t59.5 144t21.5 179.5q0 35 -6 109.5t-20.5 164.5t-35 184.5t-49.5 169.5l316 76q25 -72 46 -158t38.5 -177t27 -185t9.5 -184 q0 -166 -45.5 -308.5t-126 -247t-195.5 -164t-254 -59.5q-141 0 -258 61.5t-202 167t-132 247t-47 303.5z" />
<glyph unicode="V" horiz-adv-x="1210" d="M-6 1393l321 41q29 -217 103 -474.5t196 -539.5q111 229 175.5 492.5t87.5 543.5l321 -29q-18 -250 -60 -456.5t-116 -395t-184.5 -372t-266.5 -385.5q-248 459 -392 848t-185 727z" />
<glyph unicode="W" horiz-adv-x="1642" d="M33 565q0 158 5 273.5t21.5 214t50 193.5t89.5 214l319 -61q-160 -362 -160 -834q0 -313 140 -313q92 0 144 163t52 464q0 154 -10 260t-31 174h342q-18 -59 -26 -167t-8 -261q0 -309 49 -471t141 -162q137 0 137 313q0 471 -160 834l320 61q51 -131 84 -228t51.5 -193.5 t24.5 -207t6 -266.5q0 -145 -32 -263t-91 -201t-145 -128t-195 -45q-98 0 -184 62.5t-142 167.5q-53 -104 -141 -167t-186 -63q-111 0 -197 45t-146.5 128t-91 201t-30.5 263z" />
<glyph unicode="X" horiz-adv-x="1226" d="M16 1475h324q0 -109 20.5 -206.5t58.5 -173t90 -119.5t118 -44q186 0 186 332q0 35 -2 66.5t-6 60.5l319 47q12 -90 13 -181q0 -53 -5.5 -119.5t-21.5 -132t-48 -122t-83 -88.5q53 -29 90 -81t61.5 -121t39 -146.5t22.5 -157.5t10 -155t2 -136h-323q0 582 -181 582 q-53 0 -103 -56.5t-90 -143.5t-65.5 -192.5t-29.5 -205.5l-324 14q4 80 20.5 184.5t49 209t84 197.5t123.5 148q-100 45 -167 127t-106 183.5t-56.5 213.5t-19.5 216z" />
<glyph unicode="Y" horiz-adv-x="1128" d="M25 1284q0 88 18 174l315 -74q-8 -27 -10 -55.5t-2 -58.5q0 -63 14.5 -125t41 -111t65.5 -78.5t88 -29.5q74 0 120 28.5t70.5 72.5t33.5 100.5t9 111.5q0 147 -8 182h324q6 -84 6 -157q0 -145 -24.5 -250t-71.5 -179.5t-119 -122.5t-166 -79q-8 -135 -11 -256t-3 -238 q0 -43 1 -86t1 -84l-326 11q10 135 14.5 263t4.5 275v61q0 30 -4 58q-84 23 -155 86t-121 152.5t-77.5 194.5t-27.5 214z" />
<glyph unicode="Z" horiz-adv-x="1163" d="M-33 -27q70 141 233 433l418 731q-59 -8 -122.5 -11.5t-128.5 -3.5q-59 0 -118 2t-118 6v326q104 -6 209.5 -8t210.5 -2q156 0 309.5 4t308.5 12q-59 -133 -140 -273l-170 -287l-182 -296q-93 -150 -175 -299q92 8 181 12.5t183 4.5q100 0 193 -7v-321q-49 0 -135 -1 t-191 -2l-219 -2q-115 -1 -219.5 -4t-191.5 -6.5t-136 -7.5z" />
<glyph unicode="[" horiz-adv-x="724" d="M39 1489h463v-324h-127q37 -274 37 -618q0 -164 -6 -369q125 4 204.5 6t114.5 2v-323q-39 0 -114.5 -1t-169 -3t-192.5 -5.5t-183 -5.5q14 283 20 458t6 261q0 43 -2 116t-5 159t-7 181t-10.5 183t-13.5 162t-15 121z" />
<glyph unicode="\" horiz-adv-x="1044" d="M16 1278l285 149q43 -82 113 -196l149 -240l162 -249l149 -226l115 -171l55 -81l-274 -172l-54 82l-116 173l-151 231l-164 255l-153 244q-71 117 -116 201z" />
<glyph unicode="]" horiz-adv-x="776" d="M59 -111v324q113 0 189 -1t114 -3l-24 928l-209 6v323q35 0 110 -1l155 -2l156 -2q75 -1 109 -1q0 -72 2.5 -196.5t6.5 -276t7 -316.5t7 -316.5t6 -276.5t2 -195h-73q-48 0 -108 1t-127 2l-129 2q-62 1 -114 1h-80z" />
<glyph unicode="^" horiz-adv-x="950" d="M55 815q6 23 26.5 68t50.5 103l67 124l72 130q36 65 71 121l61 95q55 -102 129 -210l144 -200l126 -162t79 -91l-224 -234q-53 49 -111.5 137t-107.5 193q-29 -47 -53.5 -106.5t-32.5 -100.5z" />
<glyph unicode="_" horiz-adv-x="1058" d="M16 -279l45 320q174 -25 420 -25q41 0 122 2t170 3.5t169 3.5t117 2v-324q-26 0 -71.5 -1t-101.5 -2l-117 -2l-117 -2q-56 -1 -103 -2t-74 -1q-135 0 -250 7t-209 21z" />
<glyph unicode="`" horiz-adv-x="600" d="M23 1735l139 202l409 -223l-125 -166z" />
<glyph unicode="a" d="M39 682q0 166 44 309.5t126 249t196.5 164.5t253.5 59q137 0 255 -61.5t203 -168t133 -248.5t48 -304q0 -41 -2 -94t-13 -135t-35.5 -200t-69.5 -290l-318 76q18 68 42 169t52 243q-59 -10 -125.5 -31t-135 -49.5t-135 -65.5t-126.5 -80q4 -47 16.5 -88t26.5 -82 l-317 -73q-53 154 -86 334t-33 366zM362 682q0 -68 7 -125q61 43 140 81t160 66.5t158.5 49t139.5 28.5q-10 76 -38 142.5t-68 113.5t-92 75t-110 28q-70 0 -125 -36t-93 -97.5t-58.5 -145.5t-20.5 -180z" />
<glyph unicode="b" horiz-adv-x="1191" d="M41 -88l17 191q9 99 16.5 200t11.5 199t4 188q0 104 -11 287.5t-34 460.5q80 10 185.5 15t240.5 5q291 0 428 -93t137 -269q0 -98 -44 -174t-138 -103q70 -12 130 -40.5t103 -69.5t68 -96.5t25 -118.5q0 -135 -80 -244t-228.5 -183.5t-359.5 -114.5t-471 -40zM387 1130 q12 -92 18.5 -164.5t8.5 -125.5q49 6 96 24.5t84 44t59.5 57t22.5 66.5q0 109 -187 109q-27 0 -51 -3.5zM406 254q78 6 155.5 29.5t139 57.5t100.5 74t39 79q0 109 -269 108q-41 0 -77.5 -2t-71.5 -8q0 -72 -4 -156t-12 -182z" />
<glyph unicode="c" horiz-adv-x="774" d="M20 692q0 172 41 316.5t116 249t182.5 163t240.5 58.5q23 0 43.5 -2l42.5 -4l-37 -326q-23 6 -47 6q-59 0 -106 -33t-81 -93t-52.5 -145t-18.5 -190q0 -436 395 -436l35 -324q-12 -2 -25 -2h-28q-176 0 -307 55.5t-218 157t-131.5 240.5t-44.5 309z" />
<glyph unicode="d" horiz-adv-x="1091" d="M33 330q0 561 123 1157q207 0 373.5 -41t285.5 -119t182.5 -191.5t63.5 -258.5q0 -188 -86 -351.5t-226.5 -289t-318.5 -209.5t-364 -117q-33 164 -33 420zM360 338q57 33 114.5 97.5t105 141t77 157.5t29.5 145q0 215 -264 270q-62 -295 -62 -811z" />
<glyph unicode="e" horiz-adv-x="792" d="M23 692q0 172 40.5 316.5t115.5 249t182.5 163t240.5 58.5q23 0 44 -2l44 -4l-43 -328q-18 8 -61 8q-176 0 -226 -297q70 2 135.5 5t129.5 13l34 -325q-70 -8 -142.5 -11l-151.5 -6q63 -276 376 -276l35 -324q-178 0 -318.5 52.5t-237.5 150.5t-147 239.5t-50 317.5z" />
<glyph unicode="f" horiz-adv-x="747" d="M10 682q0 823 461 823q98 0 170 -17.5t119 -43.5l-113 -303q-18 10 -50 18t-79 8q-166 0 -192 -303h333v-323h-329q2 -135 13 -262t34 -252l-326 -21q-8 88 -15 181.5l-13.5 182.5t-9.5 170t-3 142z" />
<glyph unicode="g" horiz-adv-x="1185" d="M23 672q0 186 38.5 339.5t112.5 262t181.5 169t246.5 60.5q88 0 174 -27.5t154.5 -75.5t115 -113.5t56.5 -139.5l-322 -94q-43 119 -157 118q-66 0 -117 -38.5t-86 -106.5t-54.5 -159t-19.5 -195q0 -90 27.5 -166t78 -131.5t119 -86t148.5 -30.5q29 0 55.5 14.5t46 39 t31.5 56t12 66.5q0 51 -23.5 77t-82.5 26q-31 0 -54.5 -11.5t-64.5 -33.5l-55 280q43 31 102 46.5t109 15.5q84 0 153.5 -31t118.5 -85t76.5 -129t27.5 -163q0 -100 -32.5 -189.5t-93 -157t-143.5 -106.5t-183 -39q-147 0 -275.5 56.5t-221.5 156t-146 233.5t-53 292z" />
<glyph unicode="h" horiz-adv-x="1050" d="M27 1403l319 47q6 -29 13.5 -76t15.5 -106.5t14 -128t10 -138.5q43 66 109.5 94.5t138.5 28.5q90 0 158.5 -43t116 -113.5t71 -164.5t23.5 -195q0 -98 -10.5 -209.5t-23.5 -210t-24.5 -171t-13.5 -91.5l-321 27l23 223q9 88 13.5 145.5t6.5 91t2 60.5q0 324 -123 324 q-33 0 -59.5 -33t-45 -123t-29 -250t-10.5 -411h-325q0 539 -6 891t-43 532z" />
<glyph unicode="i" horiz-adv-x="499" d="M86 14v173q0 109 1 244l2 279l2 277q1 133 1 243v173h324v-172q0 -111 -1 -244l-2 -277l-2 -279q-1 -134 -1 -244v-173h-324z" />
<glyph unicode="j" horiz-adv-x="909" d="M27 428h325q0 -72 18.5 -107.5t65.5 -35.5q59 0 85 45t26 168q0 481 -176 786l282 160q219 -379 219 -946q0 -258 -112.5 -398.5t-323.5 -140.5q-94 0 -170 35t-129 97.5t-81.5 148.5t-28.5 188z" />
<glyph unicode="k" horiz-adv-x="972" d="M45 1391l324 16q4 -55 6 -111.5t2 -115.5q41 86 97 162.5t134 138.5l205 -250q-31 -27 -71 -74t-83 -104.5t-85 -120t-74.5 -119.5t-53 -104t-20.5 -74q0 -18 30.5 -49t79 -68t109.5 -76l122 -73q60 -35 114.5 -61.5t91.5 -39.5l-90 -311q-125 37 -245 97.5t-218 158.5 q6 -37 7 -87t1 -81h-324q0 55 -2 155.5t-6 226.5t-9 265t-12 270t-14.5 244t-15.5 185z" />
<glyph unicode="l" horiz-adv-x="657" d="M33 514q0 59 7 147.5t19.5 186.5l26.5 198.5t28.5 188.5t28 152.5t21.5 91.5l325 -33q-8 -33 -21 -98.5t-27.5 -150.5t-29 -180t-26.5 -187.5t-19.5 -175.5t-7.5 -140q0 -166 69 -235.5t230 -69.5v-324q-299 0 -461.5 164t-162.5 465z" />
<glyph unicode="m" horiz-adv-x="1638" d="M25 842q0 147 31.5 265t91 202t145.5 129t196 45q98 0 189.5 -61.5t136.5 -172.5q20 55 56 98.5t80 74t93.5 46t98.5 15.5q106 0 192 -45t145.5 -129t91.5 -202t32 -265q0 -285 -45.5 -499t-118.5 -394l-320 59q78 184 119 389t41 445q0 315 -137 315q-96 0 -146.5 -166 t-50.5 -463q0 -293 41 -432h-342q18 61 26.5 167t8.5 259q0 307 -51 471t-140 164q-141 0 -141 -315q0 -240 41 -444.5t121 -389.5l-322 -59q-51 129 -82.5 226t-50 192.5t-24.5 206t-6 268.5z" />
<glyph unicode="n" horiz-adv-x="1097" d="M31 821q0 180 12 326.5t35 269.5l307 53q-12 -35 -17.5 -76.5t-5.5 -72.5q45 76 116 111.5t157 35.5q205 0 314.5 -139t109.5 -420q0 -449 -221 -991l-301 123q39 92 75.5 215t65.5 248t46 238.5t17 185.5q0 215 -116 215q-133 0 -205 -150.5t-72 -408.5 q0 -104 19.5 -239.5t54.5 -270.5l-316 -111q-75 366 -75 858z" />
<glyph unicode="o" horiz-adv-x="1255" d="M27 590q0 168 48 327.5t134 284.5t202.5 201t252.5 76q129 0 233 -47.5t176 -132.5t111 -204.5t39 -267.5q0 -178 -48.5 -346t-134.5 -298t-202.5 -209.5t-251.5 -79.5q-129 0 -232.5 51t-176.5 143t-111.5 220t-38.5 282zM348 580q0 -70 15.5 -134.5t45 -113.5t70.5 -79 t92 -30q68 0 127.5 54.5t103.5 140.5t69.5 190.5t25.5 206.5q0 154 -56.5 245t-160.5 91q-68 0 -128 -53.5t-105.5 -137t-72 -185t-26.5 -195.5z" />
<glyph unicode="p" horiz-adv-x="1046" d="M10 1481q303 0 499 -31t309.5 -97.5t158.5 -172t45 -254.5q0 -205 -150.5 -350.5t-457.5 -210.5q4 -92 6 -180.5t2 -170.5h-326q0 190 -4 387t-14 386.5t-26.5 365.5t-41.5 328zM362 1155q16 -125 24.5 -243.5t12.5 -219.5q299 72 299 283q0 39 -25.5 72.5t-70.5 57 t-106.5 37t-133.5 13.5z" />
<glyph unicode="q" horiz-adv-x="1359" d="M23 477q0 102 26.5 214t76.5 219.5t121.5 205.5t163 172t199 118t228.5 44q117 0 209 -43t154.5 -116.5t96 -171t33.5 -208.5q0 -86 -16.5 -178t-52 -183t-92 -178t-138.5 -165q8 -68 20.5 -110t29 -71.5t34.5 -49.5l39 -39l-221 -238q-47 45 -94 127t-66 174 q-59 -39 -131 -58.5t-145 -19.5q-109 0 -197 41t-149.5 115t-95 175t-33.5 224zM346 502q0 -104 48 -176t134 -72q66 0 103 13.5t65 41.5q-31 68 -76 107t-92 49l109 283q86 -27 153.5 -86.5t98.5 -141.5q59 106 85.5 210t26.5 198q0 98 -51 146t-137 48q-80 0 -163 -60.5 t-150.5 -152.5t-110.5 -200.5t-43 -206.5z" />
<glyph unicode="r" horiz-adv-x="1069" d="M70 -29q18 377 18 779q0 180 -3 361t-13 362q37 4 85 7t107 3q170 0 307.5 -34t234.5 -99.5t149.5 -161.5t52.5 -221q0 -160 -86 -277t-246 -176q27 -35 72 -79t100 -93l117 -99l122 -98l-200 -254q-37 45 -101 109l-134 128l-139 122q-69 57 -114 90q-2 -111 -5 -201 t-9 -168h-315zM399 1143q8 -86 9.5 -194.5t1.5 -231.5q129 31 200.5 82t71.5 162q0 86 -70 128t-213 54z" />
<glyph unicode="s" horiz-adv-x="899" d="M37 1061q0 92 27.5 169t81 132t130 87t175.5 32q74 0 148.5 -21.5t115.5 -68.5l-199 -258q-29 35 -72 34q-84 0 -84 -106q0 -66 28 -116t73 -93t101 -85t114 -91q102 -94 139 -176t37 -166q0 -96 -35 -181t-96.5 -149.5t-144 -101.5t-177.5 -37q-152 0 -284 102l202 254 q39 -33 82 -33q55 0 91 33t36 96q0 18 -9 39t-30.5 45.5t-57.5 56l-89 74.5q-61 49 -116.5 102.5t-97.5 117t-65.5 139.5t-23.5 170z" />
<glyph unicode="t" horiz-adv-x="731" d="M25 1126v324h83q54 0 119.5 -1t137 -1t138 -1t121.5 -1h85v-324h-197q4 -154 7 -337t3 -406v-373h-323q0 819 -13 1120h-161z" />
<glyph unicode="u" horiz-adv-x="1335" d="M43 754q0 184 34 365t87 356l315 -74q-45 -143 -78.5 -308t-33.5 -339q0 -92 22.5 -174t64.5 -144.5t99 -99.5t129 -37q68 0 122 35t92 96.5t59.5 144t21.5 179.5q0 35 -6 109.5t-20.5 164.5t-35 184.5t-49.5 169.5l316 76q25 -72 46 -158t38.5 -177t27 -185t9.5 -184 q0 -166 -45.5 -308.5t-126 -247t-195.5 -164t-254 -59.5q-141 0 -258 61.5t-202 167t-132 247t-47 303.5z" />
<glyph unicode="v" horiz-adv-x="1210" d="M-6 1393l321 41q29 -217 103 -474.5t196 -539.5q111 229 175.5 492.5t87.5 543.5l321 -29q-18 -250 -60 -456.5t-116 -395t-184.5 -372t-266.5 -385.5q-248 459 -392 848t-185 727z" />
<glyph unicode="w" horiz-adv-x="1642" d="M33 565q0 158 5 273.5t21.5 214t50 193.5t89.5 214l319 -61q-160 -362 -160 -834q0 -313 140 -313q92 0 144 163t52 464q0 154 -10 260t-31 174h342q-18 -59 -26 -167t-8 -261q0 -309 49 -471t141 -162q137 0 137 313q0 471 -160 834l320 61q51 -131 84 -228t51.5 -193.5 t24.5 -207t6 -266.5q0 -145 -32 -263t-91 -201t-145 -128t-195 -45q-98 0 -184 62.5t-142 167.5q-53 -104 -141 -167t-186 -63q-111 0 -197 45t-146.5 128t-91 201t-30.5 263z" />
<glyph unicode="x" horiz-adv-x="1226" d="M16 1475h324q0 -109 20.5 -206.5t58.5 -173t90 -119.5t118 -44q186 0 186 332q0 35 -2 66.5t-6 60.5l319 47q12 -90 13 -181q0 -53 -5.5 -119.5t-21.5 -132t-48 -122t-83 -88.5q53 -29 90 -81t61.5 -121t39 -146.5t22.5 -157.5t10 -155t2 -136h-323q0 582 -181 582 q-53 0 -103 -56.5t-90 -143.5t-65.5 -192.5t-29.5 -205.5l-324 14q4 80 20.5 184.5t49 209t84 197.5t123.5 148q-100 45 -167 127t-106 183.5t-56.5 213.5t-19.5 216z" />
<glyph unicode="y" horiz-adv-x="1128" d="M25 1284q0 88 18 174l315 -74q-8 -27 -10 -55.5t-2 -58.5q0 -63 14.5 -125t41 -111t65.5 -78.5t88 -29.5q74 0 120 28.5t70.5 72.5t33.5 100.5t9 111.5q0 147 -8 182h324q6 -84 6 -157q0 -145 -24.5 -250t-71.5 -179.5t-119 -122.5t-166 -79q-8 -135 -11 -256t-3 -238 q0 -43 1 -86t1 -84l-326 11q10 135 14.5 263t4.5 275v61q0 30 -4 58q-84 23 -155 86t-121 152.5t-77.5 194.5t-27.5 214z" />
<glyph unicode="z" horiz-adv-x="1163" d="M-33 -27q70 141 233 433l418 731q-59 -8 -122.5 -11.5t-128.5 -3.5q-59 0 -118 2t-118 6v326q104 -6 209.5 -8t210.5 -2q156 0 309.5 4t308.5 12q-59 -133 -140 -273l-170 -287l-182 -296q-93 -150 -175 -299q92 8 181 12.5t183 4.5q100 0 193 -7v-321q-49 0 -135 -1 q-87 -1 -191 -2l-219 -2q-115 -1 -219.5 -4t-191.5 -6.5t-136 -7.5z" />
<glyph unicode="{" horiz-adv-x="679" d="M23 516l8 229q53 12 72.5 44t24.5 81.5t5 113t17 138.5q39 190 152.5 293t289.5 125l41 -319q-78 -12 -114 -57.5t-50 -107t-17 -131t-13.5 -134t-38 -114.5t-91.5 -71q43 -41 60.5 -82t23.5 -86t8 -94t15 -104q12 -63 48 -79t71 -16l-68 -313q-82 12 -148.5 29.5 t-114.5 54.5t-74 101.5t-26 170.5q0 51 4.5 95.5t4.5 81.5q0 53 -17.5 89.5t-72.5 61.5z" />
<glyph unicode="|" horiz-adv-x="499" d="M166 29v296q0 165 1 347t1 347v295v193h168v-133v-197q0 -112 -1 -242t-1 -263t-1 -263t-1 -242v-199v-134h-166v195z" />
<glyph unicode="}" horiz-adv-x="679" d="M59 1239l60 317q199 -39 311.5 -176t112.5 -383q0 -35 -1 -64.5t-1 -55.5q0 -59 14 -97.5t72 -54.5l-4 -229q-68 -23 -85.5 -68t-17.5 -113v-69q0 -133 -27.5 -209t-77.5 -117t-122 -55.5t-160 -22.5l-47 320q4 0 8 -1t10 -1q29 0 60 16.5t45 69.5q14 55 19 104t14.5 93 t31 84t68.5 77q-63 27 -88 79t-31 117q-5 48 -4 99v35v23q0 57 -8 108q-10 61 -43 108.5t-109 65.5z" />
<glyph unicode="~" horiz-adv-x="1730" d="M18 1124l478 -104l-19 420l193 -230l329 330l39 -389l406 31l-223 -330l450 -201l-317 -112l297 -480l-504 193l-47 -367l-246 295l-174 -317l-45 348l-567 -96l335 360l-317 109l324 67zM113 1030l356 -395l-283 -68l283 -84l-283 -317l492 100l35 -297l135 264 q-86 6 -156.5 44t-120 99.5t-77 143.5t-27.5 174q0 82 31.5 158t86 134t128 92t157.5 34q231 0 318 -248l164 258l-353 -37l-47 330l-274 -293l-168 191l22 -361zM502 690q0 -90 27.5 -167t76.5 -133t118 -89t150 -33q74 0 132.5 25.5t99.5 72t62.5 110t21.5 136.5 q0 100 -22.5 185.5t-63.5 144.5t-101.5 93t-136.5 34q-74 0 -140.5 -31.5t-116.5 -84t-78.5 -121t-28.5 -142.5zM571 674q227 -63 295 -64q102 0 256 64q-53 -78 -91 -128t-67.5 -79t-54 -40t-51.5 -11q-101 0 -287 258zM618 743q51 111 66 111q8 0 111 -72h-74 q-44 0 -103 -39zM854 782q90 102 98 103q10 0 82 -103q-72 45 -82 45q-6 0 -98 -45zM864 231l228 -231l30 317l443 -151l-273 401l273 107l-363 143q12 -45 17.5 -97t5.5 -108q0 -88 -25.5 -158.5t-74 -119.5t-115 -76t-146.5 -27z" />
<glyph unicode="&#xa1;" horiz-adv-x="493" d="M55 1239q0 35 15.5 64.5t41 51t59.5 34t71 12.5t69.5 -12.5t57 -34t40 -51t15.5 -64.5q0 -68 -53.5 -115t-128.5 -47q-37 0 -71 12.5t-59.5 34t-41 51t-15.5 64.5zM98 0q4 39 7.5 110.5t6.5 159.5t5 184.5t2 186.5q0 92 -1 165t-5 120h301q4 -43 7 -117t6 -162t4 -184 t1 -184q0 -92 -2 -166t-6 -113h-326z" />
<glyph unicode="&#xa2;" horiz-adv-x="851" d="M33 834q0 82 34.5 145t92 111.5t129 80t143.5 48.5v227h125v-209q51 0 109.5 -6t144.5 -12l-12 -232q-53 8 -115.5 14.5t-128.5 6.5q0 -55 -2 -110.5t-2 -109.5q43 6 75.5 11.5t55.5 15.5l33 -229q-59 -10 -97 -18.5t-67 -16.5v-307h-121v295q-86 0 -158.5 17t-126 54 t-83 92.5t-29.5 131.5zM285 829q0 -57 145 -57q0 51 1 99.5t1 99.5q-18 -8 -44 -22.5t-49.5 -33t-38.5 -40t-15 -46.5z" />
<glyph unicode="&#xa3;" horiz-adv-x="1159" d="M-20 205l83 59q37 27 68 60.5t55.5 84t46.5 132.5h-112l14 321h70q35 0 69 2q2 104 26 215t82 202t158.5 148.5t256.5 57.5q74 0 131 -24.5t98 -67.5t67.5 -101.5t39.5 -128.5l-281 -75q-8 41 -27.5 55t-42.5 14q-57 0 -94 -25.5t-58.5 -66.5t-30.5 -92t-11 -101 q106 0 216.5 -9t203.5 -29l-15 -318q-86 16 -169 24.5t-169 8.5q-23 0 -45 -1t-45 -1q-12 -72 -32.5 -136.5t-51.5 -119.5q51 -6 101 -22l98 -30q49 -15 98 -26.5t103 -11.5q41 0 83 5t87 15l18 -246q-41 -47 -93 -65t-106 -18q-66 0 -127 19t-122.5 43t-125 43t-130.5 19 q-104 0 -314 -61z" />
<glyph unicode="&#xa5;" horiz-adv-x="1128" d="M25 1284q0 88 18 174l315 -74q-8 -27 -10 -55.5t-2 -58.5q0 -63 14.5 -125t41 -111t65.5 -78.5t88 -29.5q74 0 120 28.5t70.5 72.5t33.5 100.5t9 111.5q0 147 -8 182h324q6 -84 6 -157q0 -145 -24.5 -250t-71.5 -179.5t-119 -122.5t-166 -79q-2 -20 -3 -40t-1 -38l281 6 l18 -336h-309v-86q0 -43 1 -86t1 -84l-326 11l15 233h-297v326l301 6l-4 92q-84 23 -155 86t-121 152.5t-77.5 194.5t-27.5 214z" />
<glyph unicode="&#xa8;" horiz-adv-x="901" d="M51 1738.5q0 71.5 46 114.5t108 43q57 0 103 -45t46 -112q0 -72 -46 -114t-103 -42q-61 0 -107.5 42t-46.5 113.5zM543 1739q0 68 46 112.5t107 44.5q59 0 105.5 -45t46.5 -112q0 -72 -46 -114t-106 -42q-61 0 -107 42t-46 114z" />
<glyph unicode="&#xa9;" horiz-adv-x="1712" d="M92 717q0 156 60.5 295t163 242.5t240.5 164t296 60.5t297 -60.5t242.5 -164t164 -243t60.5 -294.5q0 -158 -60.5 -296t-164 -241.5t-242.5 -164t-297 -60.5t-296 60.5t-240.5 164t-163 241.5t-60.5 296zM262 713q0 -127 47 -237.5t128 -194.5t189.5 -132.5t231.5 -48.5 q121 0 228.5 48.5t188.5 132.5t128 194.5t47 237.5t-47 239.5t-128 196.5t-188.5 132t-228.5 48q-123 0 -231.5 -48t-189.5 -132t-128 -196.5t-47 -239.5zM563 707q0 178 99.5 261t265.5 83l-23 -146q-16 4 -24 4q-66 0 -103 -55t-37 -147q0 -188 213 -189l21 -141 q-6 -2 -14 -2h-15q-190 0 -286.5 93.5t-96.5 238.5z" />
<glyph unicode="&#xaa;" horiz-adv-x="919" d="M96 930q0 100 27 185t76 148.5t118.5 99.5t153.5 36q82 0 152.5 -37t122 -100.5t80 -148.5t28.5 -183q0 -25 -1 -56.5t-8 -81t-21.5 -121t-41.5 -173.5l-192 45q25 80 57 248q-70 -12 -155.5 -47t-157.5 -89q4 -29 10 -53t16 -47l-192 -45q-31 92 -51.5 200.5 t-20.5 219.5zM293 891q0 -18 2 -37q37 27 83 49.5t95 41t96 29.5t84 15q-12 92 -62 153.5t-120 61.5q-41 0 -75 -21.5t-56.5 -58.5t-34.5 -87t-12 -107v-39z" />
<glyph unicode="&#xab;" horiz-adv-x="1167" d="M37 659l467 420l106 -198l-221 -222l260 -251l-121 -191zM514 659l469 418l104 -198l-221 -220l260 -251l-116 -191z" />
<glyph unicode="&#xad;" horiz-adv-x="837" d="M86 526v326q129 0 293 -7t369 -20l-23 -323q-397 24 -639 24z" />
<glyph unicode="&#xae;" horiz-adv-x="1140" d="M61 1028q0 96 37 183t104.5 153t160 103.5t203 37.5t204.5 -36.5t162.5 -101t107.5 -152t39 -187.5q0 -94 -40 -180t-108.5 -152.5t-162.5 -105.5t-203 -39q-111 0 -203 39t-159.5 105.5t-104.5 152.5t-37 180zM156 1028q0 -72 28.5 -141.5t80.5 -124.5t128 -89t170 -34 q88 0 167 29.5t138.5 82t94 123t34.5 154.5q0 70 -32.5 139.5t-90 124t-137.5 88t-174 33.5t-170 -33.5t-128 -88t-80.5 -124t-28.5 -139.5zM436 803q4 59 6 120.5t2 127.5q0 113 -6 229q12 0 27.5 1t36.5 1q117 0 182.5 -43t65.5 -121q0 -49 -29 -88t-82 -57 q18 -23 57 -54.5t80 -60.5l-63 -82q-12 14 -34 34.5l-46 41.5l-48 39l-38 29q0 -35 -1 -64t-3 -53h-107zM547 1174q4 -18 4 -37v-41v-58q43 10 66.5 25.5t23.5 50.5q0 54 -94 60z" />
<glyph unicode="&#xaf;" horiz-adv-x="901" d="M96 1628v234q135 0 309.5 -5.5t391.5 -15.5l-23 -231q-418 18 -678 18z" />
<glyph unicode="&#xb0;" horiz-adv-x="438" d="M43 1313q0 37 12.5 71.5t34 61.5t51 42t66.5 15t67.5 -15t53 -42t35 -61.5t12.5 -71.5q0 -41 -14.5 -75t-37 -59.5t-53 -40t-63.5 -14.5q-35 0 -64.5 15.5t-51 41t-35 59.5t-13.5 73z" />
<glyph unicode="&#xb2;" horiz-adv-x="966" d="M-61 -74q49 272 219 506q39 53 111 132l180 186q143 143 143 219q0 29 -10.5 57.5t-27.5 51t-42 36.5t-53 14q-61 0 -99 -65l-278 162q66 117 164 172t260 55q92 0 169 -36t130 -96t83 -136t30 -156q0 -70 -4.5 -118t-14.5 -85t-26.5 -65.5t-38.5 -59.5q-16 -20 -51 -58 l-76 -84l-91 -95l-90 -95l-76 -84q-34 -38 -49 -59q49 4 100.5 7.5t104.5 3.5q98 0 182 -8.5t140 -22.5l-64 -314q-92 25 -198.5 36.5t-235.5 11.5h-102q-68 0 -143 -2l-143 -5q-68 -2 -103 -6z" />
<glyph unicode="&#xb3;" horiz-adv-x="1038" d="M33 274l313 82q18 -66 129 -65q80 0 132 37t52 96q0 203 -170 203q-27 0 -53 -5.5t-59 -13.5q0 82 -4 163t-11 159q72 -23 132 -23q72 0 123 28t51 81q0 68 -43 107.5t-113 39.5q-137 0 -180 -102l-281 143q63 131 184 207t269 76q104 0 191 -28.5t151.5 -83 t100.5 -132.5t36 -176q0 -111 -41 -182.5t-104 -112.5q31 -18 58.5 -53t47 -79t30.5 -94t11 -100q0 -106 -39 -194t-108.5 -150.5t-162.5 -97.5t-200 -35q-82 0 -154.5 21.5t-130 61.5t-98.5 96t-59 126z" />
<glyph unicode="&#xb4;" horiz-adv-x="600" d="M23 1714l413 223l142 -202l-428 -187z" />
<glyph unicode="&#xb6;" horiz-adv-x="2281" d="M74 -2v661h221v-139h-84v-133h84v-117h-84v-272h-137zM74 735v662h133v-516h78v-146h-211zM338 735v240l82 422h141l92 -422v-240h-139v125h-47v-125h-129zM352 70v520l35 69h238l39 -69v-520l-41 -72h-236zM467 956h55l-8 68l-18 176h-7l-22 -176v-68zM483 123h39v418 h-39v-418zM705 735v662h278l37 -70v-172l-51 -72v-8l51 -76v-264h-141v289h-41v-289h-133zM717 -2v661h194l39 -428h13v428h112v-661h-205l-32 428h-9v-428h-112zM838 1133h41v145h-41v-145zM1075 735v240l80 422h143l84 -422v-240h-133v125h-41v-125h-133zM1112 520v139 h285v-139h-74v-522h-135v522h-76zM1208 956h41v68l-14 176h-10l-17 -176v-68zM1436 70v151h137v-98h33v133l-127 33l-43 69v232l37 69h233l35 -69v-133h-135v84h-33v-115l121 -29l47 -73v-254l-41 -72h-227zM1440 735v662h276l39 -70v-194l-29 -50v-8l29 -51v-217l-39 -72 h-276zM1575 860h41v164h-41v-164zM1575 1133h41v145h-41v-145zM1810 735v662h136v-662h-136zM2001 735v662h223v-140h-90v-124h90v-115h-90v-137h90v-146h-223z" />
<glyph unicode="&#xb7;" horiz-adv-x="495" d="M66 731q0 39 14 73t39.5 60.5t59.5 42t71 15.5q39 0 73.5 -15.5t59.5 -42t39 -60.5t14 -73t-14 -73.5t-39 -60.5t-59.5 -41t-73.5 -15q-37 0 -71 15t-59.5 41t-39.5 60.5t-14 73.5z" />
<glyph unicode="&#xb8;" horiz-adv-x="389" d="M27 -178q35 29 58.5 65.5t31.5 83.5l229 -30q-31 -193 -186 -306z" />
<glyph unicode="&#xb9;" horiz-adv-x="624" d="M109 1143l14 323q438 -25 438 -708q0 -47 -5 -118l-11 -150q-6 -79 -15.5 -161.5t-15.5 -154.5l-11 -127q-5 -55 -5 -78l-324 15q0 20 4 72t11 122l16 151l15 158.5t11.5 146t4.5 116.5q0 383 -127 393z" />
<glyph unicode="&#xba;" horiz-adv-x="813" d="M53 866q0 100 30 196.5t81 171.5t120.5 121t151.5 46q160 0 248 -105.5t88 -285.5q0 -106 -28.5 -207t-80 -179.5t-122 -125.5t-152.5 -47q-78 0 -140.5 30.5t-105.5 86t-66.5 131t-23.5 167.5zM248 860q0 -41 9 -80t26.5 -68.5t42 -47t55.5 -17.5q41 0 77 33t62.5 84 t42 113.5t15.5 123.5q0 92 -35 147.5t-97 55.5q-41 0 -76.5 -31.5t-63 -82t-43 -112t-15.5 -118.5z" />
<glyph unicode="&#xbb;" horiz-adv-x="1167" d="M37 408l258 251l-221 220l106 198l469 -418l-495 -442zM514 408l258 251l-221 222l106 198l469 -420l-493 -442z" />
<glyph unicode="&#xbc;" horiz-adv-x="2164" d="M109 1143l14 323q438 -25 438 -708q0 -47 -5 -118l-11 -150q-6 -79 -15.5 -161.5t-15.5 -154.5l-11 -127q-5 -55 -5 -78l-324 15q0 20 4 72t11 122l16 151l15 158.5t11.5 146t4.5 116.5q0 383 -127 393zM352 326l348 449q174 234 334 511l266 -184l-160 -258l-177 -262 q-90 -129 -181.5 -246t-173.5 -209zM954 565q111 217 194 423t140 409l311 -90q-35 -129 -68.5 -232.5t-66.5 -189.5h230q-6 236 -10.5 371t-4.5 171h326q0 -78 12 -546h117v-324h-111q0 -193 -9 -338t-25 -250l-320 56q31 193 31 536q-174 2 -357.5 3t-388.5 1z" />
<glyph unicode="&#xbd;" horiz-adv-x="2027" d="M109 1143l14 323q438 -25 438 -708q0 -47 -5 -118l-11 -150q-6 -79 -15.5 -161.5t-15.5 -154.5l-11 -127q-5 -55 -5 -78l-324 15q0 20 4 72t11 122l16 151l15 158.5t11.5 146t4.5 116.5q0 383 -127 393zM352 326l348 449q174 234 334 511l266 -184l-160 -258l-177 -262 q-90 -129 -181.5 -246t-173.5 -209zM999 -74q49 272 220 506q39 53 111 132l179 186q143 143 144 219q0 29 -10.5 57.5t-28 51t-42 36.5t-52.5 14q-61 0 -99 -65l-278 162q66 117 164 172t260 55q92 0 168.5 -36t130 -96t83 -136t29.5 -156q0 -70 -4 -118t-14 -85 t-26.5 -65.5t-39.5 -59.5q-16 -20 -50 -58l-77 -84l-90 -95l-90 -95l-77 -84q-34 -38 -48 -59q49 4 100.5 7.5t104.5 3.5q98 0 182 -8.5t140 -22.5l-64 -314q-92 25 -198.5 36.5t-235.5 11.5h-102q-68 0 -143 -2l-143 -5q-69 -2 -104 -6z" />
<glyph unicode="&#xbe;" horiz-adv-x="2578" d="M33 274l313 82q18 -66 129 -65q80 0 132 37t52 96q0 203 -170 203q-27 0 -53 -5.5t-59 -13.5q0 82 -4 163t-11 159q72 -23 132 -23q72 0 123 28t51 81q0 68 -43 107.5t-113 39.5q-137 0 -180 -102l-281 143q63 131 184 207t269 76q104 0 191 -28.5t151.5 -83 t100.5 -132.5t36 -176q0 -111 -41 -182.5t-104 -112.5q31 -18 58.5 -53t47 -79t30.5 -94t11 -100q0 -106 -39 -194t-108.5 -150.5t-162.5 -97.5t-200 -35q-82 0 -154.5 21.5t-130 61.5t-98.5 96t-59 126zM766 326l348 449q174 234 334 511l266 -184q-74 -125 -161 -258 l-177 -262q-90 -129 -181 -246t-173 -209zM1368 565q111 217 194 423t140 409l311 -90q-35 -129 -68.5 -232.5t-66.5 -189.5h229q-6 236 -10 371t-4 171h326q0 -78 12 -546h117v-324h-111q0 -193 -9 -338t-26 -250l-319 56q31 193 31 536q-174 2 -357.5 3t-388.5 1z" />
<glyph unicode="&#xbf;" horiz-adv-x="1044" d="M78 334q0 86 25.5 143.5t64.5 100.5t83 77.5t83 75.5t64.5 94.5t25.5 135.5v17q0 5 -2 10t-4 11.5l-6 20.5h311q0 -100 -6 -173t-24.5 -127t-54.5 -96t-93 -79q-66 -43 -101.5 -81t-35.5 -87q0 -47 34.5 -65.5t116.5 -18.5q66 0 107 32.5t47 86.5l315 -15 q-10 -205 -145 -311t-369 -106q-106 0 -187 26.5t-136.5 74.5t-84 112.5t-28.5 140.5zM348 1298q0 39 17.5 73t47 58.5t67.5 39t79 14.5q39 0 77 -14.5t66.5 -39t46 -58.5t17.5 -73q0 -41 -17.5 -74.5t-46 -58t-66.5 -38t-77 -13.5q-41 0 -79 13.5t-67.5 38t-47 58 t-17.5 74.5z" />
<glyph unicode="&#xc0;" d="M39 682q0 166 44 309.5t126 249t196.5 164.5t253.5 59q137 0 255 -61.5t203 -168t133 -248.5t48 -304q0 -41 -2 -94t-13 -135t-35.5 -200t-69.5 -290l-318 76q18 68 42 169t52 243q-59 -10 -125.5 -31t-135 -49.5t-135 -65.5t-126.5 -80q4 -47 16.5 -88t26.5 -82 l-317 -73q-53 154 -86 334t-33 366zM322 1735l139 202l409 -223l-125 -166zM362 682q0 -68 7 -125q61 43 140 81t160 66.5t158.5 49t139.5 28.5q-10 76 -38 142.5t-68 113.5t-92 75t-110 28q-70 0 -125 -36t-93 -97.5t-58.5 -145.5t-20.5 -180z" />
<glyph unicode="&#xc1;" d="M39 682q0 166 44 309.5t126 249t196.5 164.5t253.5 59q137 0 255 -61.5t203 -168t133 -248.5t48 -304q0 -41 -2 -94t-13 -135t-35.5 -200t-69.5 -290l-318 76q18 68 42 169t52 243q-59 -10 -125.5 -31t-135 -49.5t-135 -65.5t-126.5 -80q4 -47 16.5 -88t26.5 -82 l-317 -73q-53 154 -86 334t-33 366zM362 682q0 -68 7 -125q61 43 140 81t160 66.5t158.5 49t139.5 28.5q-10 76 -38 142.5t-68 113.5t-92 75t-110 28q-70 0 -125 -36t-93 -97.5t-58.5 -145.5t-20.5 -180zM457 1714l413 223l142 -202l-428 -187z" />
<glyph unicode="&#xc2;" d="M39 682q0 166 44 309.5t126 249t196.5 164.5t253.5 59q137 0 255 -61.5t203 -168t133 -248.5t48 -304q0 -41 -2 -94t-13 -135t-35.5 -200t-69.5 -290l-318 76q18 68 42 169t52 243q-59 -10 -125.5 -31t-135 -49.5t-135 -65.5t-126.5 -80q4 -47 16.5 -88t26.5 -82 l-317 -73q-53 154 -86 334t-33 366zM313 1704l152 111q76 57 141 122h113q70 -66 142.5 -127t158.5 -116l-148 -142q-57 47 -111 99.5t-102 111.5q-37 -55 -87 -111.5t-109 -103.5zM362 682q0 -68 7 -125q61 43 140 81t160 66.5t158.5 49t139.5 28.5q-10 76 -38 142.5 t-68 113.5t-92 75t-110 28q-70 0 -125 -36t-93 -97.5t-58.5 -145.5t-20.5 -180z" />
<glyph unicode="&#xc3;" d="M39 682q0 166 44 309.5t126 249t196.5 164.5t253.5 59q137 0 255 -61.5t203 -168t133 -248.5t48 -304q0 -41 -2 -94t-13 -135t-35.5 -200t-69.5 -290l-318 76q18 68 42 169t52 243q-59 -10 -125.5 -31t-135 -49.5t-135 -65.5t-126.5 -80q4 -47 16.5 -88t26.5 -82 l-317 -73q-53 154 -86 334t-33 366zM256 1665q20 127 92 175t172 48q53 0 95 -13t76 -28.5t60.5 -29t49.5 -13.5q51 0 80 92l194 -73q-6 -55 -26.5 -96t-49 -70t-63.5 -43.5t-68 -14.5q-59 0 -105 15.5t-83 34.5l-66 33q-29 15 -53 16q-70 0 -98 -90zM362 682q0 -68 7 -125 q61 43 140 81t160 66.5t158.5 49t139.5 28.5q-10 76 -38 142.5t-68 113.5t-92 75t-110 28q-70 0 -125 -36t-93 -97.5t-58.5 -145.5t-20.5 -180z" />
<glyph unicode="&#xc4;" d="M39 682q0 166 44 309.5t126 249t196.5 164.5t253.5 59q137 0 255 -61.5t203 -168t133 -248.5t48 -304q0 -41 -2 -94t-13 -135t-35.5 -200t-69.5 -290l-318 76q18 68 42 169t52 243q-59 -10 -125.5 -31t-135 -49.5t-135 -65.5t-126.5 -80q4 -47 16.5 -88t26.5 -82 l-317 -73q-53 154 -86 334t-33 366zM268 1738.5q0 71.5 46 114.5t108 43q57 0 103 -45t46 -112q0 -72 -46 -114t-103 -42q-61 0 -107.5 42t-46.5 113.5zM362 682q0 -68 7 -125q61 43 140 81t160 66.5t158.5 49t139.5 28.5q-10 76 -38 142.5t-68 113.5t-92 75t-110 28 q-70 0 -125 -36t-93 -97.5t-58.5 -145.5t-20.5 -180zM760 1739q0 68 46 112.5t107 44.5q59 0 105.5 -45t46.5 -112q0 -72 -46 -114t-106 -42q-61 0 -107 42t-46 114z" />
<glyph unicode="&#xc5;" d="M39 682q0 166 44 309.5t126 249t196.5 164.5t253.5 59q137 0 255 -61.5t203 -168t133 -248.5t48 -304q0 -41 -2 -94t-13 -135t-35.5 -200t-69.5 -290l-318 76q18 68 42 169t52 243q-59 -10 -125.5 -31t-135 -49.5t-135 -65.5t-126.5 -80q4 -47 16.5 -88t26.5 -82 l-317 -73q-53 154 -86 334t-33 366zM362 682q0 -68 7 -125q61 43 140 81t160 66.5t158.5 49t139.5 28.5q-10 76 -38 142.5t-68 113.5t-92 75t-110 28q-70 0 -125 -36t-93 -97.5t-58.5 -145.5t-20.5 -180zM457 1743q0 41 16 76.5t46 61.5t68 41t81 15q41 0 78.5 -15t66.5 -41 t46.5 -61.5t17.5 -76.5q0 -86 -61.5 -140.5t-147.5 -54.5t-148.5 54.5t-62.5 140.5zM532 1743q0 -53 40 -88t96 -35q53 0 93 35t40 88t-40 89t-93 36q-55 0 -95.5 -35t-40.5 -90z" />
<glyph unicode="&#xc6;" horiz-adv-x="1755" d="M51 682q0 166 45 309.5t126 249t195.5 164.5t256 59t257.5 -60.5t202 -170.5q78 117 188.5 181.5t251.5 64.5q23 0 44 -2l44 -4l-43 -328q-18 8 -62 8q-174 0 -225 -297q70 2 135.5 5t128.5 13l35 -325q-70 -8 -142.5 -11t-152.5 -6q63 -276 377 -276l37 -324 q-305 0 -492.5 141.5t-242.5 403.5q-61 -12 -138 -38.5t-155 -62.5t-150.5 -75t-124.5 -76q4 -47 16.5 -88t26.5 -82l-317 -73q-53 154 -87 334t-34 366zM377 682q0 -68 6 -125q61 43 139 81t159 66.5t159 49t139 28.5q-10 76 -38 142.5t-67.5 113.5t-91 75t-108.5 28 q-70 0 -125 -36t-93 -97.5t-58.5 -145.5t-20.5 -180z" />
<glyph unicode="&#xc7;" horiz-adv-x="774" d="M20 692q0 172 41 316.5t116 249t182.5 163t240.5 58.5q23 0 43 -2l43 -4l-37 -326q-23 6 -47 6q-59 0 -106 -33t-81 -93t-52.5 -145t-18.5 -190q0 -436 395 -436l35 -324q-12 -2 -25 -2h-28q-23 0 -43.5 1t-40.5 3q-31 -186 -184 -299l-134 187q31 27 60 66.5t41 95.5 q-201 80 -300.5 266t-99.5 442z" />
<glyph unicode="&#xc8;" horiz-adv-x="792" d="M23 692q0 172 40.5 316.5t115.5 249t182.5 163t240.5 58.5q23 0 44 -2l44 -4l-43 -328q-18 8 -61 8q-176 0 -226 -297q70 2 135.5 5t129.5 13l34 -325q-70 -8 -142.5 -11l-151.5 -6q63 -276 376 -276l35 -324q-178 0 -318.5 52.5t-237.5 150.5t-147 239.5t-50 317.5z M119 1735l139 202l410 -223l-125 -166z" />
<glyph unicode="&#xc9;" horiz-adv-x="792" d="M23 692q0 172 40.5 316.5t115.5 249t182.5 163t240.5 58.5q23 0 44 -2l44 -4l-43 -328q-18 8 -61 8q-176 0 -226 -297q70 2 135.5 5t129.5 13l34 -325q-70 -8 -142.5 -11l-151.5 -6q63 -276 376 -276l35 -324q-178 0 -318.5 52.5t-237.5 150.5t-147 239.5t-50 317.5z M254 1714l414 223l141 -202l-428 -187z" />
<glyph unicode="&#xca;" horiz-adv-x="792" d="M23 692q0 172 40.5 316.5t115.5 249t182.5 163t240.5 58.5q23 0 44 -2l44 -4l-43 -328q-18 8 -61 8q-176 0 -226 -297q70 2 135.5 5t129.5 13l34 -325q-70 -8 -142.5 -11l-151.5 -6q63 -276 376 -276l35 -324q-178 0 -318.5 52.5t-237.5 150.5t-147 239.5t-50 317.5z M111 1704l151 111q76 57 141 122h113q70 -66 142.5 -127t158.5 -116l-147 -142q-57 47 -111.5 99.5t-101.5 111.5q-37 -55 -87.5 -111.5t-109.5 -103.5z" />
<glyph unicode="&#xcb;" horiz-adv-x="792" d="M23 692q0 172 40.5 316.5t115.5 249t182.5 163t240.5 58.5q23 0 44 -2l44 -4l-43 -328q-18 8 -61 8q-176 0 -226 -297q70 2 135.5 5t129.5 13l34 -325q-70 -8 -142.5 -11l-151.5 -6q63 -276 376 -276l35 -324q-178 0 -318.5 52.5t-237.5 150.5t-147 239.5t-50 317.5z M68 1738.5q0 71.5 46 114.5t107 43q57 0 103.5 -45t46.5 -112q0 -72 -46 -114t-104 -42q-61 0 -107 42t-46 113.5zM559 1739q0 68 46 112.5t108 44.5q59 0 105 -45t46 -112q0 -72 -46 -114t-105 -42q-61 0 -107.5 42t-46.5 114z" />
<glyph unicode="&#xcc;" horiz-adv-x="499" d="M-92 1735l139 202l410 -223l-125 -166zM86 14v173q0 109 1 244l2 279l2 277q1 133 1 243v173h324v-172q0 -111 -1 -244l-2 -277l-2 -279q-1 -134 -1 -244v-173h-324z" />
<glyph unicode="&#xcd;" horiz-adv-x="499" d="M41 1714l414 223l141 -202l-428 -187zM86 14v173q0 109 1 244l2 279l2 277q1 133 1 243v173h324v-172q0 -111 -1 -244l-2 -277l-2 -279q-1 -134 -1 -244v-173h-324z" />
<glyph unicode="&#xce;" horiz-adv-x="499" d="M-102 1704l151 111q76 57 141 122h113q70 -66 142.5 -127t158.5 -116l-147 -142q-57 47 -111.5 99.5t-101.5 111.5q-37 -55 -87.5 -111.5t-109.5 -103.5zM86 14v173q0 109 1 244l2 279l2 277q1 133 1 243v173h324v-172q0 -111 -1 -244l-2 -277l-2 -279q-1 -134 -1 -244 v-173h-324z" />
<glyph unicode="&#xcf;" horiz-adv-x="499" d="M-145 1738.5q0 71.5 46 114.5t107 43q57 0 103.5 -45t46.5 -112q0 -72 -46 -114t-104 -42q-61 0 -107 42t-46 113.5zM86 14v173q0 109 1 244l2 279l2 277q1 133 1 243v173h324v-172q0 -111 -1 -244l-2 -277l-2 -279q-1 -134 -1 -244v-173h-324zM346 1739q0 68 46 112.5 t108 44.5q59 0 105 -45t46 -112q0 -72 -46 -114t-105 -42q-61 0 -107.5 42t-46.5 114z" />
<glyph unicode="&#xd0;" horiz-adv-x="1163" d="M-29 682v270h25h84h33q16 0 32 -2q33 264 86 537q209 0 377 -41t285 -120t180.5 -192.5t63.5 -256.5q0 -113 -38 -223.5t-105.5 -212t-161 -190.5t-204 -158.5t-234.5 -117t-253 -65.5q-16 86 -22 188.5t-6 231.5q0 88 2 175t8 175q-41 2 -79 2h-73zM438 338 q57 33 115.5 97.5t105 141t76 156.5t29.5 146q0 215 -264 270q-10 -47 -18.5 -99.5t-14.5 -109.5l178 -10l-22 -271l-177 11q-4 -78 -6 -159t-2 -173z" />
<glyph unicode="&#xd1;" horiz-adv-x="1097" d="M31 821q0 180 12 326.5t35 269.5l307 53q-12 -35 -17.5 -76.5t-5.5 -72.5q45 76 116 111.5t157 35.5q205 0 314.5 -139t109.5 -420q0 -449 -221 -991l-301 123q39 92 75.5 215t65.5 248t46 238.5t17 185.5q0 215 -116 215q-133 0 -205 -150.5t-72 -408.5 q0 -104 19.5 -239.5t54.5 -270.5l-316 -111q-75 366 -75 858zM137 1665q20 127 92 175t172 48q53 0 95.5 -13t76 -28.5t60 -29t49.5 -13.5q51 0 80 92l194 -73q-6 -55 -26.5 -96t-49 -70t-63.5 -43.5t-67 -14.5q-59 0 -105.5 15.5t-83.5 34.5l-65 33q-29 15 -54 16 q-70 0 -98 -90z" />
<glyph unicode="&#xd2;" horiz-adv-x="1255" d="M27 590q0 168 48 327.5t134 284.5t202.5 201t252.5 76q129 0 233 -47.5t176 -132.5t111 -204.5t39 -267.5q0 -178 -48.5 -346t-134.5 -298t-202.5 -209.5t-251.5 -79.5q-129 0 -232.5 51t-176.5 143t-111.5 220t-38.5 282zM348 580q0 -70 15.5 -134.5t45 -113.5t70.5 -79 t92 -30q68 0 127.5 54.5t103.5 140.5t69.5 190.5t25.5 206.5q0 154 -56.5 245t-160.5 91q-68 0 -128 -53.5t-105.5 -137t-72 -185t-26.5 -195.5zM348 1735l139 202l410 -223l-125 -166z" />
<glyph unicode="&#xd3;" horiz-adv-x="1255" d="M27 590q0 168 48 327.5t134 284.5t202.5 201t252.5 76q129 0 233 -47.5t176 -132.5t111 -204.5t39 -267.5q0 -178 -48.5 -346t-134.5 -298t-202.5 -209.5t-251.5 -79.5q-129 0 -232.5 51t-176.5 143t-111.5 220t-38.5 282zM348 580q0 -70 15.5 -134.5t45 -113.5t70.5 -79 t92 -30q68 0 127.5 54.5t103.5 140.5t69.5 190.5t25.5 206.5q0 154 -56.5 245t-160.5 91q-68 0 -128 -53.5t-105.5 -137t-72 -185t-26.5 -195.5zM483 1714l414 223l141 -202l-428 -187z" />
<glyph unicode="&#xd4;" horiz-adv-x="1255" d="M27 590q0 168 48 327.5t134 284.5t202.5 201t252.5 76q129 0 233 -47.5t176 -132.5t111 -204.5t39 -267.5q0 -178 -48.5 -346t-134.5 -298t-202.5 -209.5t-251.5 -79.5q-129 0 -232.5 51t-176.5 143t-111.5 220t-38.5 282zM340 1704l152 111q76 57 141 122h112 q70 -66 143 -127t159 -116l-148 -142q-57 47 -111.5 99.5t-101.5 111.5q-37 -55 -87 -111.5t-110 -103.5zM348 580q0 -70 15.5 -134.5t45 -113.5t70.5 -79t92 -30q68 0 127.5 54.5t103.5 140.5t69.5 190.5t25.5 206.5q0 154 -56.5 245t-160.5 91q-68 0 -128 -53.5 t-105.5 -137t-72 -185t-26.5 -195.5z" />
<glyph unicode="&#xd5;" horiz-adv-x="1255" d="M27 590q0 168 48 327.5t134 284.5t202.5 201t252.5 76q129 0 233 -47.5t176 -132.5t111 -204.5t39 -267.5q0 -178 -48.5 -346t-134.5 -298t-202.5 -209.5t-251.5 -79.5q-129 0 -232.5 51t-176.5 143t-111.5 220t-38.5 282zM285 1665q20 127 92 175t172 48q53 0 95 -13 t76 -28.5t60.5 -29t48.5 -13.5q51 0 80 92l195 -73q-6 -55 -26.5 -96t-49.5 -70t-63.5 -43.5t-67.5 -14.5q-59 0 -105.5 15.5t-82.5 34.5l-66 33q-29 15 -53 16q-70 0 -98 -90zM348 580q0 -70 15.5 -134.5t45 -113.5t70.5 -79t92 -30q68 0 127.5 54.5t103.5 140.5 t69.5 190.5t25.5 206.5q0 154 -56.5 245t-160.5 91q-68 0 -128 -53.5t-105.5 -137t-72 -185t-26.5 -195.5z" />
<glyph unicode="&#xd6;" horiz-adv-x="1255" d="M27 590q0 168 48 327.5t134 284.5t202.5 201t252.5 76q129 0 233 -47.5t176 -132.5t111 -204.5t39 -267.5q0 -178 -48.5 -346t-134.5 -298t-202.5 -209.5t-251.5 -79.5q-129 0 -232.5 51t-176.5 143t-111.5 220t-38.5 282zM297 1738.5q0 71.5 46 114.5t108 43 q57 0 103 -45t46 -112q0 -72 -46 -114t-103 -42q-61 0 -107.5 42t-46.5 113.5zM348 580q0 -70 15.5 -134.5t45 -113.5t70.5 -79t92 -30q68 0 127.5 54.5t103.5 140.5t69.5 190.5t25.5 206.5q0 154 -56.5 245t-160.5 91q-68 0 -128 -53.5t-105.5 -137t-72 -185t-26.5 -195.5z M788 1739q0 68 46.5 112.5t107.5 44.5q59 0 105.5 -45t46.5 -112q0 -72 -46.5 -114t-105.5 -42q-61 0 -107.5 42t-46.5 114z" />
<glyph unicode="&#xd7;" horiz-adv-x="794" d="M53 623l121 118l-115 125l228 232l114 -129l115 114l227 -227l-127 -127l127 -139l-233 -225l-129 141l-141 -137z" />
<glyph unicode="&#xd8;" horiz-adv-x="1255" d="M27 590q0 168 48 327.5t134 284.5t202.5 201t252.5 76q61 0 115.5 -11.5t103.5 -31.5l84 157l182 -88q-10 -16 -36 -64l-60 -118q170 -174 170 -496q0 -178 -48.5 -346t-134.5 -298t-202.5 -209.5t-251.5 -79.5q-139 0 -248 59q-23 -35 -45 -64l-45 -55l-160 117l47 59 q25 31 47 68q-76 94 -115.5 223t-39.5 289zM348 580q0 -41 5 -78t14 -72l364 715q-23 6 -51 6q-68 0 -128 -53.5t-105.5 -137t-72 -185t-26.5 -195.5zM496 244q33 -20 75 -21q68 0 127.5 54.5t103.5 140.5t69.5 190.5t25.5 206.5q0 88 -23 168z" />
<glyph unicode="&#xd9;" horiz-adv-x="1335" d="M43 754q0 184 34 365t87 356l315 -74q-45 -143 -78.5 -308t-33.5 -339q0 -92 22.5 -174t64.5 -144.5t99 -99.5t129 -37q68 0 122 35t92 96.5t59.5 144t21.5 179.5q0 35 -6 109.5t-20.5 164.5t-35 184.5t-49.5 169.5l316 76q25 -72 46 -158t38.5 -177t27 -185t9.5 -184 q0 -166 -45.5 -308.5t-126 -247t-195.5 -164t-254 -59.5q-141 0 -258 61.5t-202 167t-132 247t-47 303.5zM322 1735l139 202l409 -223l-125 -166z" />
<glyph unicode="&#xda;" horiz-adv-x="1335" d="M43 754q0 184 34 365t87 356l315 -74q-45 -143 -78.5 -308t-33.5 -339q0 -92 22.5 -174t64.5 -144.5t99 -99.5t129 -37q68 0 122 35t92 96.5t59.5 144t21.5 179.5q0 35 -6 109.5t-20.5 164.5t-35 184.5t-49.5 169.5l316 76q25 -72 46 -158t38.5 -177t27 -185t9.5 -184 q0 -166 -45.5 -308.5t-126 -247t-195.5 -164t-254 -59.5q-141 0 -258 61.5t-202 167t-132 247t-47 303.5zM457 1714l413 223l142 -202l-428 -187z" />
<glyph unicode="&#xdb;" horiz-adv-x="1335" d="M43 754q0 184 34 365t87 356l315 -74q-45 -143 -78.5 -308t-33.5 -339q0 -92 22.5 -174t64.5 -144.5t99 -99.5t129 -37q68 0 122 35t92 96.5t59.5 144t21.5 179.5q0 35 -6 109.5t-20.5 164.5t-35 184.5t-49.5 169.5l316 76q25 -72 46 -158t38.5 -177t27 -185t9.5 -184 q0 -166 -45.5 -308.5t-126 -247t-195.5 -164t-254 -59.5q-141 0 -258 61.5t-202 167t-132 247t-47 303.5zM313 1704l152 111q76 57 141 122h113q70 -66 142.5 -127t158.5 -116l-148 -142q-57 47 -111 99.5t-102 111.5q-37 -55 -87 -111.5t-109 -103.5z" />
<glyph unicode="&#xdc;" horiz-adv-x="1335" d="M43 754q0 184 34 365t87 356l315 -74q-45 -143 -78.5 -308t-33.5 -339q0 -92 22.5 -174t64.5 -144.5t99 -99.5t129 -37q68 0 122 35t92 96.5t59.5 144t21.5 179.5q0 35 -6 109.5t-20.5 164.5t-35 184.5t-49.5 169.5l316 76q25 -72 46 -158t38.5 -177t27 -185t9.5 -184 q0 -166 -45.5 -308.5t-126 -247t-195.5 -164t-254 -59.5q-141 0 -258 61.5t-202 167t-132 247t-47 303.5zM270 1738.5q0 71.5 46 114.5t108 43q57 0 103 -45t46 -112q0 -72 -46 -114t-103 -42q-61 0 -107.5 42t-46.5 113.5zM762 1739q0 68 46 112.5t107 44.5q59 0 105.5 -45 t46.5 -112q0 -72 -46 -114t-106 -42q-61 0 -107 42t-46 114z" />
<glyph unicode="&#xdd;" horiz-adv-x="1128" d="M25 1284q0 88 18 174l315 -74q-8 -27 -10 -55.5t-2 -58.5q0 -63 14.5 -125t41 -111t65.5 -78.5t88 -29.5q74 0 120 28.5t70.5 72.5t33.5 100.5t9 111.5q0 147 -8 182h324q6 -84 6 -157q0 -145 -24.5 -250t-71.5 -179.5t-119 -122.5t-166 -79q-8 -135 -11 -256t-3 -238 q0 -43 1 -86t1 -84l-326 11q10 135 14.5 263t4.5 275v61q0 30 -4 58q-84 23 -155 86t-121 152.5t-77.5 194.5t-27.5 214zM354 1714l414 223l141 -202l-428 -187z" />
<glyph unicode="&#xde;" horiz-adv-x="1177" d="M49 569q0 229 18.5 460t73.5 466l320 -39q-14 -63 -20.5 -125.5l-12.5 -116.5q23 2 47.5 3.5t46.5 1.5q139 0 255 -25t199 -77t128 -131t45 -187q0 -106 -42 -198.5t-135 -160t-239.5 -106.5t-355.5 -39q4 -72 5 -145.5t3 -145.5l-322 -12q-6 141 -10 285.5t-4 291.5z M377 616q74 2 152.5 8.5t145 24t108.5 51t42 93.5q0 37 -30.5 57t-76.5 30.5t-97.5 13.5t-94.5 3q-41 0 -75.5 -1t-61.5 -7q-4 -47 -8 -121t-4 -152z" />
<glyph unicode="&#xdf;" horiz-adv-x="1609" d="M37 1061q0 92 27.5 169t81 132t130 87t175.5 32q74 0 148.5 -21.5t115.5 -68.5l-199 -258q-29 35 -72 34q-84 0 -84 -106q0 -66 28 -116t73 -93t101 -85t114 -91q102 -94 139 -176t37 -166q0 -96 -35 -181t-96.5 -149.5t-144 -101.5t-177.5 -37q-152 0 -284 102l202 254 q39 -33 82 -33q55 0 91 33t36 96q0 18 -9 39t-30.5 45.5t-57.5 56l-89 74.5q-61 49 -116.5 102.5t-97.5 117t-65.5 139.5t-23.5 170zM750 1061q0 92 27.5 169t80.5 132t130 87t175 32q74 0 148.5 -21.5t115.5 -68.5l-198 -258q-29 35 -72 34q-84 0 -84 -106q0 -66 27.5 -116 t73 -93t101.5 -85t114 -91q102 -94 139 -176t37 -166q0 -96 -35 -181t-96.5 -149.5t-144.5 -101.5t-177 -37q-152 0 -285 102l203 254q39 -33 82 -33q55 0 91 33t36 96q0 18 -9 39t-30.5 45.5t-57.5 56l-89 74.5q-61 49 -116.5 102.5t-97.5 117t-65.5 139.5t-23.5 170z" />
<glyph unicode="&#xe0;" d="M39 682q0 166 44 309.5t126 249t196.5 164.5t253.5 59q137 0 255 -61.5t203 -168t133 -248.5t48 -304q0 -41 -2 -94t-13 -135t-35.5 -200t-69.5 -290l-318 76q18 68 42 169t52 243q-59 -10 -125.5 -31t-135 -49.5t-135 -65.5t-126.5 -80q4 -47 16.5 -88t26.5 -82 l-317 -73q-53 154 -86 334t-33 366zM324 1735l139 202l409 -223l-124 -166zM362 682q0 -68 7 -125q61 43 140 81t160 66.5t158.5 49t139.5 28.5q-10 76 -38 142.5t-68 113.5t-92 75t-110 28q-70 0 -125 -36t-93 -97.5t-58.5 -145.5t-20.5 -180z" />
<glyph unicode="&#xe1;" d="M39 682q0 166 44 309.5t126 249t196.5 164.5t253.5 59q137 0 255 -61.5t203 -168t133 -248.5t48 -304q0 -41 -2 -94t-13 -135t-35.5 -200t-69.5 -290l-318 76q18 68 42 169t52 243q-59 -10 -125.5 -31t-135 -49.5t-135 -65.5t-126.5 -80q4 -47 16.5 -88t26.5 -82 l-317 -73q-53 154 -86 334t-33 366zM362 682q0 -68 7 -125q61 43 140 81t160 66.5t158.5 49t139.5 28.5q-10 76 -38 142.5t-68 113.5t-92 75t-110 28q-70 0 -125 -36t-93 -97.5t-58.5 -145.5t-20.5 -180zM457 1714l413 223l142 -202l-428 -187z" />
<glyph unicode="&#xe2;" d="M39 682q0 166 44 309.5t126 249t196.5 164.5t253.5 59q137 0 255 -61.5t203 -168t133 -248.5t48 -304q0 -41 -2 -94t-13 -135t-35.5 -200t-69.5 -290l-318 76q18 68 42 169t52 243q-59 -10 -125.5 -31t-135 -49.5t-135 -65.5t-126.5 -80q4 -47 16.5 -88t26.5 -82 l-317 -73q-53 154 -86 334t-33 366zM313 1704l152 111q76 57 141 122h113q70 -66 142.5 -127t158.5 -116l-148 -142q-57 47 -111 99.5t-102 111.5q-37 -55 -87 -111.5t-109 -103.5zM362 682q0 -68 7 -125q61 43 140 81t160 66.5t158.5 49t139.5 28.5q-10 76 -38 142.5 t-68 113.5t-92 75t-110 28q-70 0 -125 -36t-93 -97.5t-58.5 -145.5t-20.5 -180z" />
<glyph unicode="&#xe3;" d="M39 682q0 166 44 309.5t126 249t196.5 164.5t253.5 59q137 0 255 -61.5t203 -168t133 -248.5t48 -304q0 -41 -2 -94t-13 -135t-35.5 -200t-69.5 -290l-318 76q18 68 42 169t52 243q-59 -10 -125.5 -31t-135 -49.5t-135 -65.5t-126.5 -80q4 -47 16.5 -88t26.5 -82 l-317 -73q-53 154 -86 334t-33 366zM256 1665q20 127 92 175t172 48q53 0 95 -13t76 -28.5t60.5 -29t49.5 -13.5q51 0 80 92l194 -73q-6 -55 -26.5 -96t-49 -70t-63.5 -43.5t-68 -14.5q-59 0 -105 15.5t-83 34.5l-66 33q-29 15 -53 16q-70 0 -98 -90zM362 682q0 -68 7 -125 q61 43 140 81t160 66.5t158.5 49t139.5 28.5q-10 76 -38 142.5t-68 113.5t-92 75t-110 28q-70 0 -125 -36t-93 -97.5t-58.5 -145.5t-20.5 -180z" />
<glyph unicode="&#xe4;" d="M39 682q0 166 44 309.5t126 249t196.5 164.5t253.5 59q137 0 255 -61.5t203 -168t133 -248.5t48 -304q0 -41 -2 -94t-13 -135t-35.5 -200t-69.5 -290l-318 76q18 68 42 169t52 243q-59 -10 -125.5 -31t-135 -49.5t-135 -65.5t-126.5 -80q4 -47 16.5 -88t26.5 -82 l-317 -73q-53 154 -86 334t-33 366zM268 1738.5q0 71.5 46 114.5t108 43q57 0 103 -45t46 -112q0 -72 -46 -114t-103 -42q-61 0 -107.5 42t-46.5 113.5zM362 682q0 -68 7 -125q61 43 140 81t160 66.5t158.5 49t139.5 28.5q-10 76 -38 142.5t-68 113.5t-92 75t-110 28 q-70 0 -125 -36t-93 -97.5t-58.5 -145.5t-20.5 -180zM760 1739q0 68 46 112.5t107 44.5q59 0 105.5 -45t46.5 -112q0 -72 -46 -114t-106 -42q-61 0 -107 42t-46 114z" />
<glyph unicode="&#xe5;" d="M39 682q0 166 44 309.5t126 249t196.5 164.5t253.5 59q137 0 255 -61.5t203 -168t133 -248.5t48 -304q0 -41 -2 -94t-13 -135t-35.5 -200t-69.5 -290l-318 76q18 68 42 169t52 243q-59 -10 -125.5 -31t-135 -49.5t-135 -65.5t-126.5 -80q4 -47 16.5 -88t26.5 -82 l-317 -73q-53 154 -86 334t-33 366zM362 682q0 -68 7 -125q61 43 140 81t160 66.5t158.5 49t139.5 28.5q-10 76 -38 142.5t-68 113.5t-92 75t-110 28q-70 0 -125 -36t-93 -97.5t-58.5 -145.5t-20.5 -180zM457 1743q0 41 16 76.5t46 61.5t68 41t81 15q41 0 78.5 -15t66.5 -41 t46.5 -61.5t17.5 -76.5q0 -86 -61.5 -140.5t-147.5 -54.5t-148.5 54.5t-62.5 140.5zM532 1743q0 -53 40 -88t96 -35q53 0 93 35t40 88t-40 89t-93 36q-55 0 -95.5 -35t-40.5 -90z" />
<glyph unicode="&#xe6;" horiz-adv-x="1755" d="M51 682q0 166 45 309.5t126 249t195.5 164.5t256 59t257.5 -60.5t202 -170.5q78 117 188.5 181.5t251.5 64.5q23 0 44 -2l44 -4l-43 -328q-18 8 -62 8q-174 0 -225 -297q70 2 135.5 5t128.5 13l35 -325q-70 -8 -142.5 -11t-152.5 -6q63 -276 377 -276l37 -324 q-305 0 -492.5 141.5t-242.5 403.5q-61 -12 -138 -38.5t-155 -62.5t-150.5 -75t-124.5 -76q4 -47 16.5 -88t26.5 -82l-317 -73q-53 154 -87 334t-34 366zM377 682q0 -68 6 -125q61 43 139 81t159 66.5t159 49t139 28.5q-10 76 -38 142.5t-67.5 113.5t-91 75t-108.5 28 q-70 0 -125 -36t-93 -97.5t-58.5 -145.5t-20.5 -180z" />
<glyph unicode="&#xe7;" horiz-adv-x="774" d="M20 692q0 172 41 316.5t116 249t182.5 163t240.5 58.5q23 0 43.5 -2l42.5 -4l-37 -326q-23 6 -47 6q-59 0 -106 -33t-81 -93t-52.5 -145t-18.5 -190q0 -436 395 -436l35 -324q-12 -2 -25 -2h-28q-23 0 -43.5 1t-40.5 3q-31 -186 -184 -299l-134 187q31 27 60 66.5 t41 95.5q-201 80 -300.5 266t-99.5 442z" />
<glyph unicode="&#xe8;" horiz-adv-x="792" d="M23 692q0 172 40.5 316.5t115.5 249t182.5 163t240.5 58.5q23 0 44 -2l44 -4l-43 -328q-18 8 -61 8q-176 0 -226 -297q70 2 135.5 5t129.5 13l34 -325q-70 -8 -142.5 -11l-151.5 -6q63 -276 376 -276l35 -324q-178 0 -318.5 52.5t-237.5 150.5t-147 239.5t-50 317.5z M121 1735l139 202l410 -223l-125 -166z" />
<glyph unicode="&#xe9;" horiz-adv-x="792" d="M23 692q0 172 40.5 316.5t115.5 249t182.5 163t240.5 58.5q23 0 44 -2l44 -4l-43 -328q-18 8 -61 8q-176 0 -226 -297q70 2 135.5 5t129.5 13l34 -325q-70 -8 -142.5 -11l-151.5 -6q63 -276 376 -276l35 -324q-178 0 -318.5 52.5t-237.5 150.5t-147 239.5t-50 317.5z M254 1714l414 223l141 -202l-428 -187z" />
<glyph unicode="&#xea;" horiz-adv-x="792" d="M23 692q0 172 40.5 316.5t115.5 249t182.5 163t240.5 58.5q23 0 44 -2l44 -4l-43 -328q-18 8 -61 8q-176 0 -226 -297q70 2 135.5 5t129.5 13l34 -325q-70 -8 -142.5 -11l-151.5 -6q63 -276 376 -276l35 -324q-178 0 -318.5 52.5t-237.5 150.5t-147 239.5t-50 317.5z M111 1704l151 111q76 57 141 122h113q70 -66 142.5 -127t158.5 -116l-147 -142q-57 47 -111.5 99.5t-101.5 111.5q-37 -55 -87.5 -111.5t-109.5 -103.5z" />
<glyph unicode="&#xeb;" horiz-adv-x="792" d="M23 692q0 172 40.5 316.5t115.5 249t182.5 163t240.5 58.5q23 0 44 -2l44 -4l-43 -328q-18 8 -61 8q-176 0 -226 -297q70 2 135.5 5t129.5 13l34 -325q-70 -8 -142.5 -11l-151.5 -6q63 -276 376 -276l35 -324q-178 0 -318.5 52.5t-237.5 150.5t-147 239.5t-50 317.5z M68 1738.5q0 71.5 46 114.5t107 43q57 0 103.5 -45t46.5 -112q0 -72 -46 -114t-104 -42q-61 0 -107 42t-46 113.5zM559 1739q0 68 46 112.5t108 44.5q59 0 105 -45t46 -112q0 -72 -46 -114t-105 -42q-61 0 -107.5 42t-46.5 114z" />
<glyph unicode="&#xec;" horiz-adv-x="499" d="M-90 1735l139 202l410 -223l-125 -166zM86 14v173q0 109 1 244l2 279l2 277q1 133 1 243v173h324v-172q0 -111 -1 -244l-2 -277l-2 -279q-1 -134 -1 -244v-173h-324z" />
<glyph unicode="&#xed;" horiz-adv-x="499" d="M41 1714l414 223l141 -202l-428 -187zM86 14v173q0 109 1 244l2 279l2 277q1 133 1 243v173h324v-172q0 -111 -1 -244l-2 -277l-2 -279q-1 -134 -1 -244v-173h-324z" />
<glyph unicode="&#xee;" horiz-adv-x="499" d="M-102 1704l151 111q76 57 141 122h113q70 -66 142.5 -127t158.5 -116l-147 -142q-57 47 -111.5 99.5t-101.5 111.5q-37 -55 -87.5 -111.5t-109.5 -103.5zM86 14v173q0 109 1 244l2 279l2 277q1 133 1 243v173h324v-172q0 -111 -1 -244l-2 -277l-2 -279q-1 -134 -1 -244 v-173h-324z" />
<glyph unicode="&#xef;" horiz-adv-x="499" d="M-145 1738.5q0 71.5 46 114.5t107 43q57 0 103.5 -45t46.5 -112q0 -72 -46 -114t-104 -42q-61 0 -107 42t-46 113.5zM86 14v173q0 109 1 244l2 279l2 277q1 133 1 243v173h324v-172q0 -111 -1 -244l-2 -277l-2 -279q-1 -134 -1 -244v-173h-324zM346 1739q0 68 46 112.5 t108 44.5q59 0 105 -45t46 -112q0 -72 -46 -114t-105 -42q-61 0 -107.5 42t-46.5 114z" />
<glyph unicode="&#xf0;" horiz-adv-x="1163" d="M-29 682v270h25h84h33q16 0 32 -2q33 264 86 537q209 0 377 -41t285 -120t180.5 -192.5t63.5 -256.5q0 -113 -38 -223.5t-105.5 -212t-161 -190.5t-204 -158.5t-234.5 -117t-253 -65.5q-16 86 -22 188.5t-6 231.5q0 88 2 175t8 175q-41 2 -79 2h-73zM438 338 q57 33 115.5 97.5t105 141t76 156.5t29.5 146q0 215 -264 270q-10 -47 -18.5 -99.5t-14.5 -109.5l178 -10l-22 -271l-177 11q-4 -78 -6 -159t-2 -173z" />
<glyph unicode="&#xf1;" horiz-adv-x="1097" d="M31 821q0 180 12 326.5t35 269.5l307 53q-12 -35 -17.5 -76.5t-5.5 -72.5q45 76 116 111.5t157 35.5q205 0 314.5 -139t109.5 -420q0 -449 -221 -991l-301 123q39 92 75.5 215t65.5 248t46 238.5t17 185.5q0 215 -116 215q-133 0 -205 -150.5t-72 -408.5 q0 -104 19.5 -239.5t54.5 -270.5l-316 -111q-75 366 -75 858zM137 1665q20 127 92 175t172 48q53 0 95.5 -13t76 -28.5t60 -29t49.5 -13.5q51 0 80 92l194 -73q-6 -55 -26.5 -96t-49 -70t-63.5 -43.5t-67 -14.5q-59 0 -105.5 15.5t-83.5 34.5l-65 33q-29 15 -54 16 q-70 0 -98 -90z" />
<glyph unicode="&#xf2;" horiz-adv-x="1255" d="M27 590q0 168 48 327.5t134 284.5t202.5 201t252.5 76q129 0 233 -47.5t176 -132.5t111 -204.5t39 -267.5q0 -178 -48.5 -346t-134.5 -298t-202.5 -209.5t-251.5 -79.5q-129 0 -232.5 51t-176.5 143t-111.5 220t-38.5 282zM348 580q0 -70 15.5 -134.5t45 -113.5t70.5 -79 t92 -30q68 0 127.5 54.5t103.5 140.5t69.5 190.5t25.5 206.5q0 154 -56.5 245t-160.5 91q-68 0 -128 -53.5t-105.5 -137t-72 -185t-26.5 -195.5zM352 1735l140 202l409 -223l-125 -166z" />
<glyph unicode="&#xf3;" horiz-adv-x="1255" d="M27 590q0 168 48 327.5t134 284.5t202.5 201t252.5 76q129 0 233 -47.5t176 -132.5t111 -204.5t39 -267.5q0 -178 -48.5 -346t-134.5 -298t-202.5 -209.5t-251.5 -79.5q-129 0 -232.5 51t-176.5 143t-111.5 220t-38.5 282zM348 580q0 -70 15.5 -134.5t45 -113.5t70.5 -79 t92 -30q68 0 127.5 54.5t103.5 140.5t69.5 190.5t25.5 206.5q0 154 -56.5 245t-160.5 91q-68 0 -128 -53.5t-105.5 -137t-72 -185t-26.5 -195.5zM483 1714l414 223l141 -202l-428 -187z" />
<glyph unicode="&#xf4;" horiz-adv-x="1255" d="M27 590q0 168 48 327.5t134 284.5t202.5 201t252.5 76q129 0 233 -47.5t176 -132.5t111 -204.5t39 -267.5q0 -178 -48.5 -346t-134.5 -298t-202.5 -209.5t-251.5 -79.5q-129 0 -232.5 51t-176.5 143t-111.5 220t-38.5 282zM340 1704l152 111q76 57 141 122h112 q70 -66 143 -127t159 -116l-148 -142q-57 47 -111.5 99.5t-101.5 111.5q-37 -55 -87 -111.5t-110 -103.5zM348 580q0 -70 15.5 -134.5t45 -113.5t70.5 -79t92 -30q68 0 127.5 54.5t103.5 140.5t69.5 190.5t25.5 206.5q0 154 -56.5 245t-160.5 91q-68 0 -128 -53.5 t-105.5 -137t-72 -185t-26.5 -195.5z" />
<glyph unicode="&#xf5;" horiz-adv-x="1255" d="M27 590q0 168 48 327.5t134 284.5t202.5 201t252.5 76q129 0 233 -47.5t176 -132.5t111 -204.5t39 -267.5q0 -178 -48.5 -346t-134.5 -298t-202.5 -209.5t-251.5 -79.5q-129 0 -232.5 51t-176.5 143t-111.5 220t-38.5 282zM285 1665q20 127 92 175t172 48q53 0 95 -13 t76 -28.5t60.5 -29t48.5 -13.5q51 0 80 92l195 -73q-6 -55 -26.5 -96t-49.5 -70t-63.5 -43.5t-67.5 -14.5q-59 0 -105.5 15.5t-82.5 34.5l-66 33q-29 15 -53 16q-70 0 -98 -90zM348 580q0 -70 15.5 -134.5t45 -113.5t70.5 -79t92 -30q68 0 127.5 54.5t103.5 140.5 t69.5 190.5t25.5 206.5q0 154 -56.5 245t-160.5 91q-68 0 -128 -53.5t-105.5 -137t-72 -185t-26.5 -195.5z" />
<glyph unicode="&#xf6;" horiz-adv-x="1255" d="M27 590q0 168 48 327.5t134 284.5t202.5 201t252.5 76q129 0 233 -47.5t176 -132.5t111 -204.5t39 -267.5q0 -178 -48.5 -346t-134.5 -298t-202.5 -209.5t-251.5 -79.5q-129 0 -232.5 51t-176.5 143t-111.5 220t-38.5 282zM297 1738.5q0 71.5 46 114.5t108 43 q57 0 103 -45t46 -112q0 -72 -46 -114t-103 -42q-61 0 -107.5 42t-46.5 113.5zM348 580q0 -70 15.5 -134.5t45 -113.5t70.5 -79t92 -30q68 0 127.5 54.5t103.5 140.5t69.5 190.5t25.5 206.5q0 154 -56.5 245t-160.5 91q-68 0 -128 -53.5t-105.5 -137t-72 -185t-26.5 -195.5z M788 1739q0 68 46.5 112.5t107.5 44.5q59 0 105.5 -45t46.5 -112q0 -72 -46.5 -114t-105.5 -42q-61 0 -107.5 42t-46.5 114z" />
<glyph unicode="&#xf7;" horiz-adv-x="804" d="M66 590v325l673 -36v-324zM219 1188q0 37 14.5 71.5t39 60.5t58.5 41t72.5 15t73.5 -15t59.5 -41t39 -60.5t14.5 -71.5q0 -80 -53.5 -136.5t-133.5 -56.5q-39 0 -72.5 15.5t-58 41t-39 60.5t-14.5 76zM221 289q0 39 16.5 72.5t44 59t63.5 40t77 14.5q39 0 74.5 -14.5 t62.5 -40t43 -59t16 -72.5q0 -41 -16 -75t-43 -60.5t-62.5 -41t-74.5 -14.5q-41 0 -77 14.5t-63.5 41t-44 60.5t-16.5 75z" />
<glyph unicode="&#xf8;" horiz-adv-x="1255" d="M27 590q0 168 48 327.5t134 284.5t202.5 201t252.5 76q61 0 115.5 -11.5t103.5 -31.5l84 157l182 -88q-10 -16 -36 -64l-60 -118q170 -174 170 -496q0 -178 -48.5 -346t-134.5 -298t-202.5 -209.5t-251.5 -79.5q-139 0 -248 59q-23 -35 -45 -64l-45 -55l-160 117l47 59 q25 31 47 68q-76 94 -115.5 223t-39.5 289zM348 580q0 -41 5 -78t14 -72l364 715q-23 6 -51 6q-68 0 -128 -53.5t-105.5 -137t-72 -185t-26.5 -195.5zM496 244q33 -20 75 -21q68 0 127.5 54.5t103.5 140.5t69.5 190.5t25.5 206.5q0 88 -23 168z" />
<glyph unicode="&#xf9;" horiz-adv-x="1335" d="M43 754q0 184 34 365t87 356l315 -74q-45 -143 -78.5 -308t-33.5 -339q0 -92 22.5 -174t64.5 -144.5t99 -99.5t129 -37q68 0 122 35t92 96.5t59.5 144t21.5 179.5q0 35 -6 109.5t-20.5 164.5t-35 184.5t-49.5 169.5l316 76q25 -72 46 -158t38.5 -177t27 -185t9.5 -184 q0 -166 -45.5 -308.5t-126 -247t-195.5 -164t-254 -59.5q-141 0 -258 61.5t-202 167t-132 247t-47 303.5zM324 1735l139 202l409 -223l-124 -166z" />
<glyph unicode="&#xfa;" horiz-adv-x="1335" d="M43 754q0 184 34 365t87 356l315 -74q-45 -143 -78.5 -308t-33.5 -339q0 -92 22.5 -174t64.5 -144.5t99 -99.5t129 -37q68 0 122 35t92 96.5t59.5 144t21.5 179.5q0 35 -6 109.5t-20.5 164.5t-35 184.5t-49.5 169.5l316 76q25 -72 46 -158t38.5 -177t27 -185t9.5 -184 q0 -166 -45.5 -308.5t-126 -247t-195.5 -164t-254 -59.5q-141 0 -258 61.5t-202 167t-132 247t-47 303.5zM457 1714l413 223l142 -202l-428 -187z" />
<glyph unicode="&#xfb;" horiz-adv-x="1335" d="M43 754q0 184 34 365t87 356l315 -74q-45 -143 -78.5 -308t-33.5 -339q0 -92 22.5 -174t64.5 -144.5t99 -99.5t129 -37q68 0 122 35t92 96.5t59.5 144t21.5 179.5q0 35 -6 109.5t-20.5 164.5t-35 184.5t-49.5 169.5l316 76q25 -72 46 -158t38.5 -177t27 -185t9.5 -184 q0 -166 -45.5 -308.5t-126 -247t-195.5 -164t-254 -59.5q-141 0 -258 61.5t-202 167t-132 247t-47 303.5zM313 1704l152 111q76 57 141 122h113q70 -66 142.5 -127t158.5 -116l-148 -142q-57 47 -111 99.5t-102 111.5q-37 -55 -87 -111.5t-109 -103.5z" />
<glyph unicode="&#xfc;" horiz-adv-x="1335" d="M43 754q0 184 34 365t87 356l315 -74q-45 -143 -78.5 -308t-33.5 -339q0 -92 22.5 -174t64.5 -144.5t99 -99.5t129 -37q68 0 122 35t92 96.5t59.5 144t21.5 179.5q0 35 -6 109.5t-20.5 164.5t-35 184.5t-49.5 169.5l316 76q25 -72 46 -158t38.5 -177t27 -185t9.5 -184 q0 -166 -45.5 -308.5t-126 -247t-195.5 -164t-254 -59.5q-141 0 -258 61.5t-202 167t-132 247t-47 303.5zM270 1738.5q0 71.5 46 114.5t108 43q57 0 103 -45t46 -112q0 -72 -46 -114t-103 -42q-61 0 -107.5 42t-46.5 113.5zM762 1739q0 68 46 112.5t107 44.5q59 0 105.5 -45 t46.5 -112q0 -72 -46 -114t-106 -42q-61 0 -107 42t-46 114z" />
<glyph unicode="&#xfd;" horiz-adv-x="1128" d="M25 1284q0 88 18 174l315 -74q-8 -27 -10 -55.5t-2 -58.5q0 -63 14.5 -125t41 -111t65.5 -78.5t88 -29.5q74 0 120 28.5t70.5 72.5t33.5 100.5t9 111.5q0 147 -8 182h324q6 -84 6 -157q0 -145 -24.5 -250t-71.5 -179.5t-119 -122.5t-166 -79q-8 -135 -11 -256t-3 -238 q0 -43 1 -86t1 -84l-326 11q10 135 14.5 263t4.5 275v61q0 30 -4 58q-84 23 -155 86t-121 152.5t-77.5 194.5t-27.5 214zM354 1714l414 223l141 -202l-428 -187z" />
<glyph unicode="&#xfe;" horiz-adv-x="1177" d="M49 569q0 229 18.5 460t73.5 466l320 -39q-14 -63 -20.5 -125.5l-12.5 -116.5q23 2 47.5 3.5t46.5 1.5q139 0 255 -25t199 -77t128 -131t45 -187q0 -106 -42 -198.5t-135 -160t-239.5 -106.5t-355.5 -39q4 -72 5 -145.5t3 -145.5l-322 -12q-6 141 -10 285.5t-4 291.5z M377 616q74 2 152.5 8.5t145 24t108.5 51t42 93.5q0 37 -30.5 57t-76.5 30.5t-97.5 13.5t-94.5 3q-41 0 -75.5 -1t-61.5 -7q-4 -47 -8 -121t-4 -152z" />
<glyph unicode="&#xff;" horiz-adv-x="1128" d="M25 1284q0 88 18 174l315 -74q-8 -27 -10 -55.5t-2 -58.5q0 -63 14.5 -125t41 -111t65.5 -78.5t88 -29.5q74 0 120 28.5t70.5 72.5t33.5 100.5t9 111.5q0 147 -8 182h324q6 -84 6 -157q0 -145 -24.5 -250t-71.5 -179.5t-119 -122.5t-166 -79q-8 -135 -11 -256t-3 -238 q0 -43 1 -86t1 -84l-326 11q10 135 14.5 263t4.5 275v61q0 30 -4 58q-84 23 -155 86t-121 152.5t-77.5 194.5t-27.5 214zM166 1738.5q0 71.5 46 114.5t107 43q57 0 103.5 -45t46.5 -112q0 -72 -46 -114t-104 -42q-61 0 -107 42t-46 113.5zM657 1739q0 68 46.5 112.5 t107.5 44.5q59 0 105.5 -45t46.5 -112q0 -72 -46.5 -114t-105.5 -42q-61 0 -107.5 42t-46.5 114z" />
<glyph unicode="&#x152;" horiz-adv-x="1648" d="M27 590q0 168 48 327.5t134 284.5t202.5 201t252.5 76q141 0 240.5 -52.5t160.5 -150.5q68 98 165 150.5t226 52.5q23 0 43 -2l43 -4l-41 -328q-18 8 -61 8q-176 0 -226 -297q70 2 135.5 5t129.5 13l34 -325q-70 -8 -142.5 -11l-151.5 -6q63 -276 376 -276l35 -324 q-215 0 -362.5 73t-233.5 208q-78 -143 -191.5 -231t-256.5 -88q-129 0 -232.5 51t-176.5 143t-111.5 220t-38.5 282zM348 580q0 -70 15.5 -134.5t45 -113.5t70.5 -79t92 -30q68 0 127.5 54.5t103.5 140.5t69.5 190.5t25.5 206.5q0 154 -56.5 245t-160.5 91 q-68 0 -128 -53.5t-105.5 -137t-72 -185t-26.5 -195.5z" />
<glyph unicode="&#x153;" horiz-adv-x="1648" d="M27 590q0 168 48 327.5t134 284.5t202.5 201t252.5 76q141 0 240.5 -52.5t160.5 -150.5q68 98 165 150.5t226 52.5q23 0 43.5 -2l42.5 -4l-41 -328q-18 8 -61 8q-176 0 -226 -297q70 2 135.5 5t129.5 13l34 -325q-70 -8 -142.5 -11l-151.5 -6q63 -276 376 -276l35 -324 q-215 0 -362.5 73t-233.5 208q-78 -143 -191.5 -231t-256.5 -88q-129 0 -232.5 51t-176.5 143t-111.5 220t-38.5 282zM348 580q0 -70 15.5 -134.5t45 -113.5t70.5 -79t92 -30q68 0 127.5 54.5t103.5 140.5t69.5 190.5t25.5 206.5q0 154 -56.5 245t-160.5 91 q-68 0 -128 -53.5t-105.5 -137t-72 -185t-26.5 -195.5z" />
<glyph unicode="&#x178;" horiz-adv-x="1128" d="M25 1284q0 88 18 174l315 -74q-8 -27 -10 -55.5t-2 -58.5q0 -63 14.5 -125t41 -111t65.5 -78.5t88 -29.5q74 0 120 28.5t70.5 72.5t33.5 100.5t9 111.5q0 147 -8 182h324q6 -84 6 -157q0 -145 -24.5 -250t-71.5 -179.5t-119 -122.5t-166 -79q-8 -135 -11 -256t-3 -238 q0 -43 1 -86t1 -84l-326 11q10 135 14.5 263t4.5 275v61q0 30 -4 58q-84 23 -155 86t-121 152.5t-77.5 194.5t-27.5 214zM166 1738.5q0 71.5 46 114.5t107 43q57 0 103.5 -45t46.5 -112q0 -72 -46 -114t-104 -42q-61 0 -107 42t-46 113.5zM657 1739q0 68 46.5 112.5 t107.5 44.5q59 0 105.5 -45t46.5 -112q0 -72 -46.5 -114t-105.5 -42q-61 0 -107.5 42t-46.5 114z" />
<glyph unicode="&#x2c6;" horiz-adv-x="763" d="M23 1704l151 111q76 57 141 122h113q70 -66 142.5 -127t158.5 -116l-147 -142q-57 47 -111.5 99.5t-101.5 111.5q-37 -55 -87.5 -111.5t-109.5 -103.5z" />
<glyph unicode="&#x2dc;" horiz-adv-x="866" d="M20 1665q20 127 92 175t173 48q53 0 95 -13t75.5 -28.5l60.5 -29t49 -13.5q51 0 80 92l195 -73q-6 -55 -26.5 -96t-49.5 -70t-63.5 -43.5t-67.5 -14.5q-59 0 -105.5 15.5t-83.5 34.5l-65 33q-29 15 -53 16q-70 0 -99 -90z" />
<glyph unicode="&#x2013;" horiz-adv-x="1218" d="M86 526v326q41 0 118 -1t172 -2t203 -4l212 -6q104 -3 198 -6.5t162 -7.5l-23 -323q-66 4 -157.5 7t-194 6t-208 5t-199 3t-168 2t-115.5 1z" />
<glyph unicode="&#x2014;" horiz-adv-x="1980" d="M86 526v326h116q83 0 200.5 -1t261 -3t293 -3t297 -3t274.5 -5t225 -6.5l150 -5.5l-23 -323q-49 2 -145.5 4t-222.5 4t-272 4l-295 4q-148 2 -289.5 3t-258 2t-198.5 2t-113 1z" />
<glyph unicode="&#x2018;" horiz-adv-x="509" d="M68 1391q0 55 19 109t55 101.5t86.5 86t111.5 65.5l-68 -90q-41 -57 -41 -100q0 -4 1 -11.5t4 -17.5q20 6 40 6q74 0 118 -56.5t44 -129.5q0 -37 -16 -69t-42 -55.5t-60.5 -36.5t-71.5 -13q-86 0 -133 59.5t-47 151.5z" />
<glyph unicode="&#x2019;" horiz-adv-x="489" d="M51 1579q0 37 16.5 68.5t43 55t61.5 37t72 13.5q86 0 133 -59.5t47 -151.5q0 -113 -71.5 -212t-202.5 -150q70 78 89 124t19 66q0 4 -1 11.5t-3 17.5q-23 -6 -41 -6q-72 0 -117 56t-45 130z" />
<glyph unicode="&#x201a;" horiz-adv-x="489" d="M51 190q0 37 16.5 69t43 55.5t61.5 37t72 13.5q86 0 133 -59.5t47 -151.5q0 -113 -71.5 -212.5t-202.5 -150.5q70 78 89 124t19 67q0 4 -1 11t-3 17q-23 -6 -41 -6q-72 0 -117 56t-45 130z" />
<glyph unicode="&#x201c;" horiz-adv-x="911" d="M45 1391q0 55 19.5 109t55.5 101.5t86 86t111 65.5l-67 -90q-41 -57 -41 -100q0 -4 1 -11.5t3 -17.5q20 6 41 6q74 0 118 -56.5t44 -129.5q0 -37 -16.5 -69t-42 -55.5t-60.5 -36.5t-72 -13q-86 0 -133 59.5t-47 151.5zM451 1391q0 55 19 109t55 101.5t86 86t112 65.5 l-68 -90q-41 -57 -41 -100q0 -4 1 -11.5t3 -17.5q20 6 41 6q74 0 118 -56.5t44 -129.5q0 -37 -16.5 -69t-42 -55.5t-60 -36.5t-71.5 -13q-86 0 -133 59.5t-47 151.5z" />
<glyph unicode="&#x201d;" horiz-adv-x="899" d="M51 1579q0 37 16.5 68.5t43 55t61.5 37t72 13.5q86 0 133 -59.5t47 -151.5q0 -113 -71.5 -212t-202.5 -150q70 78 89 124t19 66q0 4 -1 11.5t-3 17.5q-23 -6 -41 -6q-72 0 -117 56t-45 130zM457 1579q0 37 16 68.5t43 55t61.5 37t71.5 13.5q86 0 133 -59.5t47 -151.5 q0 -113 -71.5 -212t-202.5 -150q70 78 89.5 124t19.5 66q0 4 -1 11.5t-4 17.5q-23 -6 -41 -6q-72 0 -116.5 56t-44.5 130z" />
<glyph unicode="&#x201e;" horiz-adv-x="899" d="M51 190q0 37 16.5 69t43 55.5t61.5 37t72 13.5q86 0 133 -59.5t47 -151.5q0 -113 -71.5 -212.5t-202.5 -150.5q70 78 89 124t19 67q0 4 -1 11t-3 17q-23 -6 -41 -6q-72 0 -117 56t-45 130zM457 190q0 37 16 69t43 55.5t61.5 37t71.5 13.5q86 0 133 -59.5t47 -151.5 q0 -113 -71.5 -212.5t-202.5 -150.5q70 78 89.5 124t19.5 67q0 4 -1 11t-4 17q-23 -6 -41 -6q-72 0 -116.5 56t-44.5 130z" />
<glyph unicode="&#x2022;" horiz-adv-x="694" d="M74 741.5q0 49.5 21.5 94.5t57 78.5t84 53t103.5 19.5t103.5 -19.5t85 -53t57 -78.5t20.5 -94.5t-20.5 -94.5t-57 -78.5t-85 -53t-103.5 -19.5t-103.5 19.5t-84 53t-57 78.5t-21.5 94.5z" />
<glyph unicode="&#x2026;" horiz-adv-x="3504" d="M545 135q0 39 15 74t43 60.5t63.5 40t76.5 14.5q39 0 76 -14.5t64.5 -40t44 -60.5t16.5 -74q0 -82 -59.5 -136t-141 -54t-140 54t-58.5 136zM1556 135q0 39 15.5 74t43 60.5t63.5 40t77 14.5q39 0 76 -14.5t64.5 -40t44 -60.5t16.5 -74q0 -82 -59.5 -136t-141.5 -54 t-140.5 54t-58.5 136zM2568 135q0 39 15.5 74t43 60.5t63.5 40t77 14.5q39 0 75.5 -14.5t64.5 -40t44.5 -60.5t16.5 -74q0 -82 -59.5 -136t-141.5 -54t-140.5 54t-58.5 136z" />
<glyph unicode="&#x2039;" horiz-adv-x="1050" d="M-25 664l783 585l194 -258l-366 -307l465 -328l-191 -264z" />
<glyph unicode="&#x203a;" horiz-adv-x="1085" d="M23 1057l186 264l887 -576l-781 -585l-196 260l368 307z" />
<glyph unicode="&#x20ac;" horiz-adv-x="1069" d="M10 438l27 332l102 10q8 164 60.5 295t146.5 222.5t226.5 140.5t301.5 49q94 0 162 -23l-92 -313q-49 6 -102 6q-63 0 -125 -15.5t-113 -54t-87 -104t-48 -166.5l389 41l-100 -340l-248 -24q76 -227 321 -228q41 0 91 6l84 -317q-45 -12 -95.5 -15t-93.5 -3 q-252 0 -411.5 139t-225.5 379z" />
<glyph unicode="&#x2122;" horiz-adv-x="1374" d="M25 1290v174h75q51 0 107.5 -1t108.5 -1h77v-174h-104q2 -86 3 -183t1 -220v-201h-174q0 227 -1 377.5t-5 228.5h-88zM449 1137q0 160 66.5 253t184.5 93q51 0 101.5 -34t75.5 -93q23 59 73.5 93t102.5 34q117 0 183.5 -93.5t66.5 -252.5q0 -156 -25 -269.5t-64 -214.5 l-174 33q86 197 86 451q0 170 -73 170q-51 0 -79 -89.5t-28 -248.5q0 -156 23 -234h-185q20 59 21 230q0 166 -28.5 254t-76.5 88q-76 0 -75 -170q0 -260 88 -451l-174 -33q-29 70 -46.5 122t-27.5 104.5t-13 112t-3 145.5z" />
<glyph unicode="&#xe000;" horiz-adv-x="1475" d="M0 1475h1475v-1475h-1475v1475z" />
<glyph unicode="&#xfb01;" horiz-adv-x="1247" d="M10 682q0 823 461 823q98 0 170 -17.5t119 -43.5l-113 -303q-18 10 -50 18t-79 8q-166 0 -192 -303h333v-323h-329q2 -135 13 -262t34 -252l-326 -21q-8 88 -15 181.5l-13.5 182.5t-9.5 170t-3 142zM834 14v173q0 109 1 244l2 279l2 277q1 133 1 243v173h323v-172 q0 -111 -1 -244l-2 -277l-2 -279q-1 -134 -1 -244v-173h-323z" />
<glyph unicode="&#xfb02;" horiz-adv-x="1404" d="M10 682q0 823 461 823q98 0 170 -17.5t119 -43.5l-113 -303q-18 10 -50 18t-79 8q-166 0 -192 -303h333v-323h-329q2 -135 13 -262t34 -252l-326 -21q-8 88 -15 181.5l-13.5 182.5t-9.5 170t-3 142zM780 514q0 59 7.5 147.5t19.5 186.5t26.5 198.5t29 188.5t27.5 152.5 t21 91.5l326 -33q-8 -33 -21.5 -98.5t-27.5 -150.5l-28.5 -180t-27 -187.5t-19.5 -175.5t-7 -140q0 -166 68.5 -235.5t230.5 -69.5v-324q-299 0 -462 164t-163 465z" />
<glyph unicode="&#xfb03;" horiz-adv-x="1994" d="M10 682q0 823 461 823q98 0 170 -17.5t119 -43.5l-113 -303q-18 10 -50 18t-79 8q-166 0 -192 -303h333v-323h-329q2 -135 13 -262t34 -252l-326 -21q-8 88 -15 181.5l-13.5 182.5t-9.5 170t-3 142zM758 682q0 823 461 823q98 0 169.5 -17.5t118.5 -43.5l-112 -303 q-18 10 -50 18t-79 8q-166 0 -193 -303h334v-323h-330q2 -135 13.5 -262t33.5 -252l-325 -21q-8 88 -15.5 181.5t-13.5 182.5t-9 170t-3 142zM1581 14v173q0 109 1 244l2 279l2 277q1 133 1 243v173h324v-172q0 -111 -1 -244l-2 -277l-2 -279q-1 -134 -1 -244v-173h-324z " />
<glyph unicode="&#xfb04;" horiz-adv-x="2152" d="M10 682q0 823 461 823q98 0 170 -17.5t119 -43.5l-113 -303q-18 10 -50 18t-79 8q-166 0 -192 -303h333v-323h-329q2 -135 13 -262t34 -252l-326 -21q-8 88 -15 181.5l-13.5 182.5t-9.5 170t-3 142zM758 682q0 823 461 823q98 0 169.5 -17.5t118.5 -43.5l-112 -303 q-18 10 -50 18t-79 8q-166 0 -193 -303h334v-323h-330q2 -135 13.5 -262t33.5 -252l-325 -21q-8 88 -15.5 181.5t-13.5 182.5t-9 170t-3 142zM1528 514q0 59 7 147.5t19.5 186.5l26.5 198.5t28.5 188.5t28 152.5t21.5 91.5l326 -33q-8 -33 -21.5 -98.5t-28 -150.5t-29 -180 t-26.5 -187.5t-19.5 -175.5t-7.5 -140q0 -166 69 -235.5t230 -69.5v-324q-299 0 -461.5 164t-162.5 465z" />
</font>
</defs>
</svg>
